<svg xmlns="http://www.w3.org/2000/svg" xmlns:xlink="http://www.w3.org/1999/xlink" fill="none" version="1.1" width="512" height="512" viewBox="0 0 512 512"><g><rect x="0" y="0" width="512" height="512" rx="16" fill="#5A56BF" fill-opacity="1"/><g></g><g><ellipse cx="410.0212697982788" cy="338.44686222076416" rx="11.517729759216309" ry="9.04964542388916" fill="#EDE8FF" fill-opacity="1"/></g><g><path d="M366.78761187825,297.32484970703126Q367.13376965625,296.32964970703125,367.53250765625,295.3542497070313Q367.93124765625,294.37894970703127,368.38142765625,293.4262497070313Q368.83160765625,292.47364970703126,369.33195765625,291.5462497070313Q369.83229765625,290.6189497070312,370.38138765625,289.71964970703124Q370.93046765625,288.82034970703126,371.52672765625,287.95164970703127Q372.12299765625,287.08284970703124,372.76473765625,286.24714970703127Q373.40647765625,285.41144970703124,374.09187765625,284.61114970703125Q374.77726765625,283.81084970703125,375.50436765625,283.04818970703127Q376.23146765625,282.28556970703124,376.99819765625,281.56280970703125Q377.76489765625,280.84004970703126,378.56909765625,280.15920970703127Q379.37329765625,279.4783697070313,380.21269765625,278.8413897070312Q381.05199765625,278.20439970703126,381.92409765625,277.61307970703126Q382.79629765625,277.02175970703126,383.69869765625,276.47778970703126Q384.60109765625,275.93381970703126,385.53119765625,275.43874970703126Q386.46139765625,274.94367970703127,387.41659765625,274.49891070703126Q388.37179765625,274.05414570703124,389.34939765625,273.6609524859812Q390.63139765625,273.77361770703124,391.85499765625,274.02596170703123Q393.07859765625,274.2783067070313,394.22099765625,274.66563970703123Q395.36349765625,275.0529797070312,396.40349765625,275.56809970703125Q397.44349765625,276.08322970703125,398.36179765625,276.7165697070312Q399.29489765625,277.36005970703127,400.08449765625,278.1133197070312Q400.87419765625,278.86658970703127,401.50519765625,279.71516970703124Q402.13629765625,280.56375970703124,402.59679765625,281.49137970703123Q403.05719765624997,282.41900970703125,403.33819765625003,283.40787970703127Q403.43749765625,283.7575497070313,403.51389765625,284.11334970703126Q403.59019765625,284.46914970703125,403.64339765625,284.83004970703126Q403.69659765625,285.19104970703125,403.72639765625,285.5564497070313Q403.75629765625,285.92174970703127,403.76279765625,286.29054970703123Q403.76919765625,286.65934970703125,403.75229765625,287.03074970703125Q403.73539765625003,287.40214970703124,403.69509765625,287.77524970703126Q403.65489765625,288.14834970703123,403.59129765625,288.5222497070313Q403.52779765625,288.89604970703124,403.44119765625,289.26984970703126Q403.35449765625,289.6436497070313,403.24499765625,290.0163497070312Q403.13539765625,290.38914970703127,403.00329765624997,290.75994970703124Q402.87109765625,291.13084970703125,402.71659765625,291.49884970703124Q402.56209765625,291.86684970703124,402.38569765625,292.2312497070312Q402.20929765625,292.59564970703127,402.01129765625,292.95534970703125Q401.81339765625,293.31514970703125,401.59439765625,293.66954970703125Q401.37539765625,294.0238497070313,401.13589765625,294.37194970703126Q400.89639765625,294.7199497070313,400.63699765625,295.0609497070312Q400.37749765625,295.40184970703126,400.09879765625,295.73484970703123Q399.81999765625,296.06784970703126,399.52259765625,296.3920497070313Q399.22519765625,296.71634970703127,398.90989765625,297.03104970703123Q398.59459765625,297.34574970703125,398.26209765625,297.65014970703123Q397.92969765625,297.9545497070313,397.58079765625,298.24794970703124Q397.23199765625,298.54134970703126,396.86759765625,298.82304970703126Q396.50319765625,299.10474970703126,396.12419765625,299.3739497070313Q395.74519765625,299.64324970703126,395.35249765625,299.89944970703124Q394.95969765625,300.1556497070313,394.55419765625,300.3981497070313Q394.14869765625,300.64064970703123,393.73139765625,300.8689497070312Q393.31399765625,301.09724970703127,392.88589765625,301.3107497070313Q392.45769765625,301.52414970703126,392.01979765625,301.72234970703124Q391.58189765625,301.92044970703125,391.13529765625,302.10274970703125Q390.68869765625,302.2851497070312,390.23439765625,302.45124970703125Q389.78009765625,302.6173497070312,389.31929765625,302.76684970703127Q388.85849765625,302.9162497070312,388.39229765625,303.0487497070312Q387.78879765625,303.2201497070312,387.17849765625,303.36254970703123Q386.56809765625,303.50494970703124,385.95319765625,303.61764970703126Q385.33839765625,303.7303497070312,384.72149765625,303.81294970703124Q384.10469765625,303.8956497070312,383.48829765625,303.9477497070312Q382.87189765625,303.99994970703125,382.25849765625003,304.02144970703125Q381.64509765625,304.04304970703123,381.03719765625,304.03384970703127Q380.42919765625,304.02464970703124,379.82919765625,303.98474970703126Q379.22909765625,303.94484970703127,378.63939765625,303.87444970703126Q378.04959765625,303.8039497070313,377.47259765625,303.70324970703126Q376.89559765625,303.6026497070313,376.33352765625,303.47204970703126Q375.77150765625,303.3415497070313,375.22678765625,303.18174970703126Q374.68205765625,303.02184970703127,374.15681765625,302.83334970703123Q373.63157765625,302.64484970703126,373.12794765625,302.42834970703126Q372.62430765625,302.21194970703124,372.14431765625,301.96844970703125Q371.66431765625,301.72504970703125,371.20989765625,301.4554497070312Q370.75547765625,301.1859497070312,370.32845765625,300.89144970703126Q369.24097765625,300.14144970703126,368.34996765625,299.2439497070312Q367.45896165625,298.34644970703124,366.78761187825,297.32484970703126Z" fill-rule="evenodd" fill="#EDE8FF" fill-opacity="1"/><path d="M389.34939765625,273.6609524859812Q388.37179765625,274.05414570703124,387.41659765625,274.49891070703126Q386.46139765625,274.94367970703127,385.53119765625,275.43874970703126Q384.60109765625,275.93381970703126,383.69869765625,276.47778970703126Q382.79629765625,277.02175970703126,381.92409765625,277.61307970703126Q381.05199765625,278.20439970703126,380.21269765625,278.8413897070312Q379.37329765625,279.4783697070313,378.56909765625,280.15920970703127Q377.76489765625,280.84004970703126,376.99819765625,281.56280970703125Q376.23146765625,282.28556970703124,375.50436765625,283.04818970703127Q374.77726765625,283.81084970703125,374.09187765625,284.61114970703125Q373.40647765625,285.41144970703124,372.76473765625,286.24714970703127Q372.12299765625,287.08284970703124,371.52673765625,287.95164970703127Q370.93046765625,288.82034970703126,370.38138765625,289.71964970703124Q369.83229765625,290.6189497070312,369.33195765625,291.5462497070313Q368.83160765625,292.47364970703126,368.38142765625,293.4262497070313Q367.93124765625,294.37894970703127,367.53250765625,295.3542497070313Q367.13376965625,296.32964970703125,366.78761187825,297.32484970703126Q367.45896165625,298.34644970703124,368.34996765625,299.2439497070312Q369.24097765625,300.14144970703126,370.32845765625,300.89144970703126Q370.75547765625,301.1859497070312,371.20989765625,301.4554497070312Q371.66431765625,301.72504970703125,372.14431765625,301.96844970703125Q372.62430765625,302.21194970703124,373.12794765625,302.42834970703126Q373.63157765625,302.64484970703126,374.15681765625,302.83334970703123Q374.68205765625,303.02184970703127,375.22678765625,303.18174970703126Q375.77150765625,303.3415497070313,376.33352765625,303.47204970703126Q376.89559765625,303.6026497070313,377.47259765625,303.70324970703126Q378.04959765625,303.8039497070313,378.63939765625,303.87444970703126Q379.22909765625,303.94484970703127,379.82919765625,303.98474970703126Q380.42919765625,304.02464970703124,381.03719765625,304.03384970703127Q381.64509765625,304.04304970703123,382.25849765625003,304.02144970703125Q382.87189765625,303.99994970703125,383.48829765625,303.9477497070312Q384.10469765625,303.8956497070312,384.72149765625,303.81294970703124Q385.33839765625,303.7303497070312,385.95319765625,303.61764970703126Q386.56809765625,303.50494970703124,387.17849765625,303.36254970703123Q387.78879765625,303.2201497070312,388.39229765625,303.0487497070312Q388.85849765625,302.9162497070312,389.31929765625,302.76684970703127Q389.78009765625,302.6173497070312,390.23439765625,302.45124970703125Q390.68869765625,302.2851497070312,391.13529765625,302.1028497070312Q391.58189765625,301.92044970703125,392.01979765625,301.72234970703124Q392.45769765625,301.52414970703126,392.88589765625,301.3107497070313Q393.31399765625,301.09724970703127,393.73139765625,300.8689497070312Q394.14869765625,300.64064970703123,394.55419765625,300.3981497070313Q394.95979765625,300.1556497070313,395.35249765625,299.89944970703124Q395.74519765625,299.64324970703126,396.12419765625,299.3739497070313Q396.50329765624997,299.10474970703126,396.86759765625,298.82304970703126Q397.23199765625,298.54134970703126,397.58079765625,298.24794970703124Q397.92969765625,297.9545497070313,398.26209765625,297.65014970703123Q398.59459765625,297.34574970703125,398.90989765625,297.03104970703123Q399.22519765625,296.71634970703127,399.52259765625,296.3920497070313Q399.81999765625,296.06784970703126,400.09879765625,295.73484970703123Q400.37749765625,295.40184970703126,400.63699765625,295.0609497070312Q400.89639765625,294.7199497070313,401.13589765625,294.37194970703126Q401.37539765625,294.0238497070313,401.59439765625,293.66954970703125Q401.81339765625,293.31514970703125,402.01129765625,292.95534970703125Q402.20929765625,292.59554970703124,402.38569765625,292.2312497070312Q402.56209765625,291.86684970703124,402.71659765625,291.49884970703124Q402.87109765625,291.13084970703125,403.00329765624997,290.75994970703124Q403.13539765625,290.38914970703127,403.24499765625,290.0163497070312Q403.35449765625,289.6436497070313,403.44119765625,289.26984970703126Q403.52779765625,288.89604970703124,403.59129765625,288.5222497070313Q403.65489765625,288.14834970703123,403.69509765625,287.77524970703126Q403.73539765625003,287.40214970703124,403.75229765625,287.03074970703125Q403.76919765625,286.65934970703125,403.76279765625,286.29054970703123Q403.75629765625,285.92174970703127,403.72639765625,285.5564497070313Q403.69659765625,285.19104970703125,403.64339765625,284.83004970703126Q403.59019765625,284.46914970703125,403.51389765625,284.11334970703126Q403.43749765625,283.7575497070313,403.33819765625003,283.40787970703127Q403.05719765624997,282.41900970703125,402.59679765625,281.49137970703123Q402.13629765625,280.56375970703124,401.50519765625,279.71516970703124Q400.87419765625,278.86658970703127,400.08449765625,278.1133197070312Q399.29489765625,277.36005970703127,398.36179765625,276.7165697070312Q397.44349765625,276.08322970703125,396.40349765625,275.56809970703125Q395.36349765625,275.0529797070312,394.22099765625,274.66563970703123Q393.07859765625,274.2783067070313,391.85499765625,274.02596170703123Q390.63139765625,273.77361770703124,389.34939765625,273.6609524859812ZM389.93619765625,277.75039970703125Q383.36689765625,280.59819970703126,378.39939765625,285.80834970703125Q373.85522765625,290.5745497070312,371.34954765625,296.58534970703124Q371.91304765625,297.12524970703123,372.59943765625,297.59864970703126Q375.27547765625,299.44424970703125,379.11369765625,299.90264970703123Q383.13799765625,300.38324970703127,387.29909765625,299.20104970703125Q390.36269765625,298.3306497070312,392.95619765625,296.68494970703125Q395.69939765624997,294.9441497070313,397.45379765625,292.6386497070313Q399.09889765625,290.47684970703125,399.58129765625,288.20074970703126Q399.99159765625,286.26494970703123,399.49039765625,284.50104970703126Q398.73179765625,281.83075970703123,396.09089765625,280.00937970703126Q393.52709765625,278.24118970703125,389.93619765625,277.75039970703125Z" fill-rule="evenodd" fill="#EDE8FF" fill-opacity="1"/></g><g><ellipse cx="404.08506774902344" cy="310.29783630371094" rx="35.48936462402344" ry="35.48936462402344" fill-opacity="0" stroke-opacity="1" stroke="#EDE8FF" fill="none" stroke-width="8"/></g><g transform="matrix(0.25033289194107056,0.9681598544120789,-0.9681598544120789,0.25033289194107056,249.91750197509464,15.356947185395256)"><g transform="matrix(1,1.4921001323386918e-8,-1.4921001323386918e-8,1,0.000002545554082189483,-0.000001734263349817411)"><path d="M128.45038864440917,170.60207844194997Q129.14488864440918,170.66309701184997,129.80768864440918,170.79978041184998Q130.4704886444092,170.93646441184998,131.08928864440918,171.14627341185Q131.70818864440918,171.35608141184997,132.27148864440917,171.63511441184997Q132.83488864440918,171.91414441184997,133.33228864440918,172.25722441185Q133.83768864440918,172.60577441184998,134.26548864440917,173.01379441184997Q134.6931886444092,173.42181441184997,135.03498864440917,173.88146441184998Q135.37688864440918,174.34111441185,135.6262886444092,174.84357441184997Q135.8756886444092,175.34604441185,136.02778864440918,175.88168441185Q136.17998864440918,176.41731441185,136.23208864440917,176.97585441184998Q136.28408864440917,177.53439441184997,136.23498864440919,178.10511441184997Q136.18588864440918,178.67583441184996,136.03658864440916,179.24778441184998Q135.88728864440918,179.81974441184997,135.64068864440918,180.38196441184996Q135.52778864440918,180.63929441185,135.3951886444092,180.89289441184997Q135.2625886444092,181.14649441184997,135.11078864440918,181.39539441184996Q134.95888864440917,181.64429441184998,134.78848864440917,181.88739441184998Q134.61808864440917,182.13059441184998,134.42978864440917,182.36699441185Q134.24148864440917,182.60349441184997,134.03598864440917,182.83219441184997Q133.83058864440918,183.06099441184998,133.60878864440917,183.28119441184998Q133.38698864440917,183.50139441185,133.14978864440917,183.71219441184996Q132.91258864440917,183.92289441184997,132.66088864440917,184.12329441184997Q132.40928864440917,184.32369441184997,132.14418864440918,184.51299441184997Q131.8790886444092,184.70229441184998,131.6015886444092,184.87969441184998Q131.3240886444092,185.05699441184998,131.03528864440918,185.22179441184997Q130.74648864440917,185.38659441184998,130.44768864440917,185.53809441184998Q130.1487886444092,185.68959441184998,129.84108864440918,185.82719441184997Q129.53328864440917,185.96479441184997,129.2178886444092,186.08799441185Q128.90258864440918,186.21119441185,128.58078864440918,186.31939441184997Q128.2589886444092,186.42759441184998,127.93208864440918,186.52049441184997Q127.71678864440918,186.58169441184998,127.49978864440918,186.63599441184996Q127.28268864440918,186.69039441184998,127.06428864440917,186.73789441184996Q126.84588864440917,186.78529441184997,126.62658864440918,186.82579441184998Q126.40718864440917,186.86629441184996,126.18723864440918,186.89969441184996Q125.96728864440918,186.93309441184996,125.74713864440918,186.95939441184998Q125.52698864440919,186.98569441184998,125.30702864440917,187.00479441184999Q125.08705864440918,187.02389441184997,124.86766864440918,187.03589441184997Q124.64827864440917,187.04779441184996,124.42983864440919,187.05249441184998Q124.21140864440918,187.05719441185,123.99430864440917,187.05469441184997Q123.77720864440919,187.05219441184997,123.56182864440918,187.04239441184998Q123.34645864440918,187.03269441184997,123.13316864440918,187.01579441184998Q122.91988864440918,186.99879441184999,122.70906864440919,186.97469441184998Q122.49825864440918,186.95059441184998,122.29028864440917,186.91929441185Q122.08230864440918,186.88809441184998,121.87753864440919,186.84979441184998Q121.67276864440917,186.81139441184996,121.47155864440919,186.76609441184996Q121.27034864440918,186.72079441184997,121.07304864440918,186.66849441184996Q120.87575864440917,186.61619441184996,120.68271864440918,186.55709441185Q120.48967864440918,186.49799441185,120.30123864440918,186.43209441185Q120.11279864440918,186.36629441184996,119.92928864440918,186.29379441184997Q119.74577864440919,186.22129441184998,119.56751864440918,186.14239441184998Q119.38924864440918,186.06339441184997,119.21654864440919,185.97809441184998Q119.04384864440918,185.89279441184996,118.87700864440917,185.80119441184996Q118.71016864440918,185.70969441184997,118.54948864440918,185.61209441184997Q118.38880864440918,185.51459441184997,118.23455864440918,185.41109441184997Q118.08031864440918,185.30769441184998,117.93277864440918,185.19849441184996Q117.78523864440918,185.08939441184998,117.64466864440918,184.97469441184998Q117.50409864440918,184.86009441184999,117.37073864440919,184.74009441184998Q117.23737864440918,184.62019441184998,117.11146064440918,184.49509441184998Q116.98554564440919,184.37009441184998,116.86729764440918,184.24019441184998Q116.74904864440919,184.11019441185,116.63867264440918,183.97569441185Q116.52829764440918,183.84109441184998,116.42598864440917,183.70209441184997Q116.32367914440918,183.56319441184996,116.22961554230918,183.41999441184998Q116.62588764440918,182.28069441184996,117.14773664440918,181.19319441185Q117.66958864440917,180.10567441184998,118.31039864440918,179.08371441184997Q118.95120864440918,178.06175441185,119.70284864440919,177.11831441184998Q120.45448864440918,176.17488441184997,121.30743864440917,175.32193441184998Q122.06995864440918,174.55941441184999,122.90530864440917,173.87744441184998Q123.74065864440918,173.19547441184997,124.64035864440918,172.60098441184996Q125.54005864440919,172.00648441184998,126.49498864440918,171.50548941184996Q127.44988864440919,171.00449341184998,128.45038864440917,170.60207844194997Z" fill-rule="evenodd" fill="#EDE8FF" fill-opacity="1"/><path d="M133.33228864440918,172.25722441185Q132.83488864440918,171.91414441184997,132.27148864440917,171.63511441184997Q131.70818864440918,171.35608141184997,131.08928864440918,171.14627341185Q130.4704886444092,170.93646441184998,129.80768864440918,170.79978041184998Q129.14488864440918,170.66309701184997,128.45038864440917,170.60207844194997Q127.44988864440919,171.00449341184998,126.49498864440918,171.50548941184996Q125.54005864440919,172.00648441184998,124.64035864440918,172.60098441184996Q123.74065864440918,173.19547441184997,122.90530864440917,173.87744441184998Q122.06995864440918,174.55941441184999,121.30743864440917,175.32193441184998Q120.45448864440918,176.17488441184997,119.70284864440919,177.11831441184998Q118.95120864440918,178.06175441185,118.31039864440918,179.08371441184997Q117.66958864440917,180.10567441184998,117.14773664440918,181.19319441185Q116.62588764440918,182.28069441184996,116.22961554230918,183.41999441184998Q116.32367914440918,183.56319441184996,116.42598864440917,183.70209441184997Q116.52829764440918,183.84109441184998,116.63867264440918,183.97569441185Q116.74904864440919,184.11019441185,116.86729764440918,184.24019441184998Q116.98554564440919,184.37009441184998,117.11146064440918,184.49509441184998Q117.23737864440918,184.62019441184998,117.37073864440919,184.74009441184998Q117.50409864440918,184.86009441184999,117.64466864440918,184.97469441184998Q117.78523864440918,185.08939441184998,117.93277864440918,185.19849441184996Q118.08031864440918,185.30769441184998,118.23455864440918,185.41109441184997Q118.38880864440918,185.51459441184997,118.54948864440918,185.61209441184997Q118.71016864440918,185.70969441184997,118.87700864440917,185.80119441184996Q119.04384864440918,185.89279441184996,119.21654864440919,185.97809441184998Q119.38924864440918,186.06339441184997,119.56750864440917,186.14239441184998Q119.74577864440919,186.22129441184998,119.92928864440918,186.29379441184997Q120.11279864440918,186.36629441184996,120.30123864440918,186.43209441185Q120.48967864440918,186.49799441185,120.68271864440918,186.55709441185Q120.87575864440917,186.61619441184996,121.07304864440918,186.66849441184996Q121.27034864440918,186.72079441184997,121.47155864440919,186.76609441184996Q121.67276864440917,186.81139441184996,121.87753864440919,186.84979441184998Q122.08230864440918,186.88809441184998,122.29028864440917,186.91929441185Q122.49825864440918,186.95059441184998,122.70906864440919,186.97469441184998Q122.91988864440918,186.99879441184999,123.13316864440918,187.01579441184998Q123.34645864440918,187.03269441184997,123.56182864440918,187.04239441184998Q123.77720864440919,187.05219441184997,123.99430864440917,187.05469441184997Q124.21140864440918,187.05719441185,124.42983864440919,187.05249441184998Q124.64827864440917,187.04779441184996,124.86766864440918,187.03589441184997Q125.08705864440918,187.02389441184997,125.30702864440917,187.00479441184999Q125.52698864440919,186.98569441184998,125.74713864440918,186.95939441184998Q125.96728864440918,186.93309441184996,126.18723864440918,186.89969441184996Q126.40718864440917,186.86629441184996,126.62658864440918,186.82579441184998Q126.84588864440917,186.78529441184997,127.06428864440917,186.73789441184996Q127.28268864440918,186.69039441184998,127.49978864440918,186.63599441184996Q127.71678864440918,186.58169441184998,127.93208864440918,186.52049441184997Q128.2589886444092,186.42759441184998,128.58078864440918,186.31939441184997Q128.90258864440918,186.21119441185,129.2178886444092,186.08799441185Q129.53328864440917,185.96479441184997,129.84108864440918,185.82719441184997Q130.1487886444092,185.68959441184998,130.44768864440917,185.53809441184998Q130.74648864440917,185.38659441184998,131.03528864440918,185.22179441184997Q131.3240886444092,185.05699441184998,131.6015886444092,184.87969441184998Q131.8790886444092,184.70229441184998,132.14418864440918,184.51299441184997Q132.40928864440917,184.32369441184997,132.66088864440917,184.12329441184997Q132.91258864440917,183.92289441184997,133.14978864440917,183.71219441184996Q133.38698864440917,183.50139441185,133.60878864440917,183.28119441184998Q133.83058864440918,183.06099441184998,134.03598864440917,182.83219441184997Q134.24148864440917,182.60349441184997,134.42978864440917,182.36699441185Q134.61808864440917,182.13059441184998,134.78848864440917,181.88739441184998Q134.95888864440917,181.64429441184998,135.11078864440918,181.39539441184996Q135.2625886444092,181.14649441184997,135.3951886444092,180.89289441184997Q135.52778864440918,180.63929441185,135.64068864440918,180.38196441184996Q135.88728864440918,179.81974441184997,136.03658864440916,179.24778441184998Q136.18588864440918,178.67583441184996,136.23498864440919,178.10511441184997Q136.28408864440917,177.53439441184997,136.23208864440917,176.97585441184998Q136.17998864440918,176.41731441185,136.02778864440918,175.88168441185Q135.8756886444092,175.34604441185,135.6262886444092,174.84357441184997Q135.37688864440918,174.34111441185,135.03498864440917,173.88146441184998Q134.6931886444092,173.42181441184997,134.26548864440917,173.01379441184997Q133.83768864440918,172.60577441184998,133.33228864440918,172.25722441185ZM121.00634864440917,182.40959441184998Q121.49078864440918,182.64119441184997,122.09746864440918,182.80189441185Q124.31583864440918,183.38959441184997,126.83898864440918,182.67279441184996Q128.73928864440919,182.13289441184997,130.1691886444092,180.99419441184997Q131.45238864440918,179.97235441184998,131.97758864440917,178.77507441184997Q132.41088864440917,177.78729441184998,132.18008864440918,176.97486441184998Q131.9492886444092,176.16243441184997,131.0613886444092,175.55003441184996Q130.20548864440917,174.95978441184997,129.01468864440918,174.71738441184996Q126.28768864440917,175.99858441184998,124.13586864440919,178.15036441184998Q122.22392864440918,180.06229441184996,121.00634864440917,182.40959441184998Z" fill-rule="evenodd" fill="#EDE8FF" fill-opacity="1"/></g><g><ellipse cx="136.43243026733398" cy="190.44689559936523" rx="18.890071868896484" ry="18.890071868896484" fill-opacity="0" stroke-opacity="1" stroke="#EDE8FF" fill="none" stroke-width="5"/></g></g><g><path d="M294.096444140625,125.202719921875C293.950876140625,125.670619921875,294.165801140625,126.175119921875,294.604087140625,126.39421992187499L298.729924140625,128.457119921875C302.043934140625,130.114119921875,305.163494140625,132.134419921875,308.031094140625,134.480619921875L308.308294140625,134.707419921875C311.270294140625,137.130919921875,313.944294140625,139.88631992187499,316.277594140625,142.919819921875L317.575194140625,144.606619921875C319.84659414062503,147.559419921875,321.780794140625,150.756819921875,323.341994140625,154.139219921875L325.389194140625,158.57481992187502C325.662794140625,159.167719921875,326.421994140625,159.343519921875,326.928394140625,158.931319921875L359.401594140625,132.499619921875C360.096894140625,131.933719921875,359.753694140625,130.809319921875,358.860894140625,130.728219921875L344.189794140625,129.394419921875C343.644394140625,129.344819921875,343.24039414062497,128.86581992187502,343.283494140625,128.319819921875L345.538494140625,99.756419921875C345.598794140625,98.991849921875,344.811594140625,98.446729921875,344.117194140625,98.772239921875L320.133794140625,110.014419921875C319.682794140625,110.225819921875,319.144894140625,110.073119921875,318.872394140625,109.65621992187499L306.523094140625,90.769159921875C306.060294140625,90.061359921875,304.982494140625,90.211849921875,304.731294140625,91.019339921875L299.602854140625,107.503519921875L294.096444140625,125.202719921875Z" fill="#EDE8FF" fill-opacity="1"/></g><g><ellipse cx="418.8935890197754" cy="178.6666603088379" rx="13.16312026977539" ry="13.16312026977539" fill="#EDE8FF" fill-opacity="1"/></g><g style="opacity:0.4000000059604645;"><ellipse cx="256" cy="256" rx="220" ry="220" fill-opacity="0" stroke-opacity="0.4000000059604645" stroke="#EDE8FF" fill="none" stroke-width="24"/></g><g><path d="M374.05603417968746,410.140883203125Q372.4810341796875,411.346583203125,370.8830341796875,412.519883203125Q369.2840341796875,413.693183203125,367.6620341796875,414.833583203125Q366.0400341796875,415.973883203125,364.3950341796875,417.080883203125Q362.75003417968753,418.187983203125,361.0830341796875,419.26118320312503Q359.4150341796875,420.334283203125,357.72603417968753,421.373183203125Q356.0370341796875,422.412183203125,354.3280341796875,423.416383203125Q352.61803417968747,424.420583203125,350.8880341796875,425.38958320312497Q349.1580341796875,426.358683203125,347.4090341796875,427.292183203125Q345.6590341796875,428.225783203125,343.8910341796875,429.123383203125Q342.12303417968747,430.020983203125,340.3370341796875,430.882283203125Q338.55103417968746,431.743583203125,336.74803417968747,432.568283203125Q334.9440341796875,433.392983203125,333.12503417968753,434.180583203125Q331.3050341796875,434.968283203125,329.4700341796875,435.718583203125Q327.6340341796875,436.468883203125,325.7840341796875,437.181583203125Q323.9330341796875,437.894283203125,322.0690341796875,438.569083203125Q320.2040341796875,439.243783203125,318.3260341796875,439.88028320312503Q316.4480341796875,440.516883203125,314.5580341796875,441.114883203125Q312.6670341796875,441.712883203125,310.7650341796875,442.272183203125Q308.8630341796875,442.831483203125,306.9490341796875,443.351883203125Q305.0360341796875,443.872183203125,303.1120341796875,444.353383203125Q301.1890341796875,444.834483203125,299.2560341796875,445.276283203125Q297.3230341796875,445.717983203125,295.3810341796875,446.120183203125Q293.4390341796875,446.522383203125,291.49003417968754,446.884883203125Q289.5400341796875,447.247283203125,287.5840341796875,447.569883203125Q285.6270341796875,447.892383203125,283.6650341796875,448.174983203125Q281.70203417968753,448.457483203125,279.7340341796875,448.699883203125Q277.7660341796875,448.942283203125,275.7940341796875,449.144383203125Q273.8210341796875,449.34658320312496,271.8450341796875,449.508383203125Q269.8690341796875,449.670183203125,267.88903417968754,449.791583203125Q265.9100341796875,449.913083203125,263.9290341796875,449.994083203125Q261.9480341796875,450.074983203125,259.9650341796875,450.115483203125Q257.9830341796875,450.155983203125,256.00003417968753,450.155983203125Q253.6330341796875,450.155983203125,251.2660341796875,450.098283203125Q248.8990341796875,450.040583203125,246.5350341796875,449.925183203125Q244.1700341796875,449.809783203125,241.8090341796875,449.636683203125Q239.4480341796875,449.463683203125,237.09203417968752,449.23308320312503Q234.7360341796875,449.002583203125,232.3860341796875,448.714683203125Q230.0360341796875,448.426783203125,227.6940341796875,448.081583203125Q225.3520341796875,447.736483203125,223.01903417968748,447.334383203125Q220.6860341796875,446.932183203125,218.3639341796875,446.473283203125Q216.04143417968749,446.014383203125,213.73083417968752,445.498983203125Q211.4202341796875,444.983583203125,209.1229341796875,444.411983203125Q206.82563417968748,443.840483203125,204.5429341796875,443.213083203125Q202.2602341796875,442.585583203125,199.99353417968752,441.902683203125Q197.7267341796875,441.219783203125,195.4773341796875,440.481883203125Q193.2279341796875,439.743883203125,190.9972341796875,438.951283203125Q188.7664341796875,438.158783203125,186.5557341796875,437.311983203125Q184.3449341796875,436.465283203125,182.1555341796875,435.564883203125Q179.96603417968748,434.664483203125,177.79923417968752,433.710983203125Q175.6323341796875,432.757483203125,173.4894341796875,431.751383203125Q171.3464341796875,430.745383203125,169.2286341796875,429.687283203125Q167.1109341796875,428.629283203125,165.0195341796875,427.519983203125Q162.9281341796875,426.410683203125,160.8644341796875,425.250683203125Q158.8008341796875,424.090683203125,156.7660341796875,422.880683203125Q154.7312341796875,421.670683203125,152.7265341796875,420.411483203125Q150.7218341796875,419.152283203125,148.7484341796875,417.844583203125Q146.7750341796875,416.53678320312497,144.8341341796875,415.181383203125Q142.8932341796875,413.825883203125,140.9859341796875,412.423583203125Q139.0786341796875,411.021183203125,137.2061341796875,409.572683203125Q135.3336341796875,408.124283203125,133.4969341796875,406.630583203125Q131.6603341796875,405.136883203125,129.8606341796875,403.598783203125Q128.06095417968749,402.06078320312497,126.2993041796875,400.479383203125Q124.53765417968751,398.897883203125,122.8150841796875,397.273983203125Q121.0925141796875,395.649983203125,119.4100595660875,393.984583203125C179.7996341796875,376.922223203125,307.2940341796875,375.439703203125,372.00003417968753,409.021183203125Q373.0540341796875,409.568083203125,374.05603417968746,410.140883203125Z" fill-rule="evenodd" fill="#EDE8FF" fill-opacity="1"/></g><g><path d="M135.0322731298828,162.24495068359374C131.8319431298828,165.58535068359376,141.20870312988282,177.96195068359376,153.8490331298828,194.64605068359376C169.6855331298828,215.54885068359374,190.6447331298828,243.21295068359376,198.41123312988282,268.33995068359377Q212.3871331298828,313.55695068359375,194.32313312988282,368.63195068359374C194.32303312988282,368.63195068359374,194.3229331298828,368.63195068359374,194.3228331298828,368.6329506835938C194.3091331298828,368.6739506835937,194.34033312988282,368.71795068359376,194.3841331298828,368.71595068359375C226.5988331298828,366.9309506835938,262.0368331298828,367.93695068359375,294.7708331298828,372.6229506835938C295.5658331298828,372.73695068359376,296.1768331298828,371.92795068359374,295.8298331298828,371.20395068359375Q279.0348331298828,336.1379506835938,279.0348331298828,316.87895068359376Q279.0348331298828,286.49195068359376,397.0938331298828,234.78895068359375C397.3538331298828,234.67595068359375,397.5568331298828,234.45495068359375,397.6388331298828,234.18395068359376Q398.7188331298828,230.60815068359375,397.4418331298828,228.38575068359376Q393.6218331298828,221.73685068359373,368.7088331298828,227.20565068359375C334.9788331298828,234.60995068359375,313.5888331298828,255.17695068359376,284.79383312988284,255.17695068359376C270.3968331298828,255.17695068359376,269.47183312988284,249.21295068359376,273.2768331298828,246.94995068359376C276.04883312988284,245.30195068359376,281.33283312988283,245.61895068359377,286.2238331298828,245.91195068359374C288.0458331298828,246.02195068359373,289.81283312988285,246.12795068359375,291.37583312988284,246.12795068359375C302.88483312988285,246.12795068359375,331.64483312988284,234.62695068359375,337.4338331298828,223.11825068359374C337.4338331298828,223.11795068359373,337.4338331298828,223.11805068359376,337.4338331298828,223.11775068359375C337.44283312988284,223.10035068359375,337.4508331298828,223.08365068359376,337.45783312988283,223.06575068359376C337.45783312988283,223.06555068359376,337.45783312988283,223.06585068359374,337.45783312988283,223.06575068359376C338.20283312988283,221.31685068359377,339.0838331298828,218.16435068359374,337.4468331298828,219.80135068359374C335.5838331298828,221.66395068359375,329.6138331298828,221.53545068359375,326.92183312988277,221.46675068359374C326.3698331298828,221.45265068359373,325.9278331298828,220.99255068359375,325.9608331298828,220.44125068359375Q326.18283312988285,216.77195068359373,327.9228331298828,210.06565068359373C328.1008331298828,209.37745068359374,327.4208331298828,208.77205068359376,326.7848331298828,209.08995068359377L326.7518331298828,209.10635068359375C325.5258331298828,209.71925068359377,323.3868331298828,211.24545068359373,322.0358331298828,211.98385068359374C321.5078331298828,212.27235068359374,321.0598331298828,211.86795068359373,321.1138331298828,211.26895068359374Q321.6388331298828,205.47215068359375,320.3648331298828,197.87635068359376C320.3068331298828,197.53385068359376,320.72683312988283,197.32235068359375,320.97183312988284,197.56795068359375C320.98583312988285,197.58175068359375,320.9988331298828,197.59665068359374,321.00983312988285,197.61255068359375L324.6278331298828,202.67805068359377C324.7768331298828,202.88675068359373,325.10683312988283,202.78135068359376,325.10683312988283,202.52485068359374L325.10683312988283,197.60475068359375C325.10683312988283,197.59405068359376,325.10583312988285,197.58375068359373,325.10583312988285,197.57295068359375Q324.2828331298828,172.08255068359375,320.1698331298828,163.85815068359375C316.0568331298828,155.63115068359375,295.4888331298828,126.01421068359375,260.1138331298828,134.24114068359376Q225.1606331298828,142.36974068359376,218.3175331298828,175.39585068359375C218.2204331298828,175.86435068359376,217.8198331298828,176.20075068359375,217.3415331298828,176.18595068359375Q214.4765331298828,176.09735068359376,211.61153312988282,175.38515068359374C211.5866331298828,175.37895068359376,211.5634331298828,175.37225068359373,211.53913312988283,175.36405068359375C209.71733312988283,174.75485068359376,209.7174331298828,174.60105068359374,208.7886331298828,174.21505068359374C207.92843312988282,173.85765068359376,207.1164331298828,173.37375068359376,206.42113312988283,172.75395068359376Q204.92023312988283,171.41605068359377,202.5804331298828,169.65875068359375C202.5426331298828,169.63035068359375,202.5094331298828,169.59915068359373,202.4717331298828,169.57065068359375C202.1645331298828,169.33825068359374,201.7021331298828,169.55255068359375,201.7021331298828,169.95775068359376L201.7021331298828,172.58085068359375C201.7021331298828,172.79875068359377,201.7079331298828,173.01575068359375,201.72033312988282,173.23335068359376Q204.1416331298828,215.69375068359375,232.8832331298828,232.91595068359373C232.9371331298828,232.94795068359375,232.98913312988282,232.98595068359376,233.0347331298828,233.02895068359373C235.0098331298828,234.89795068359376,233.7210331298828,238.67295068359374,232.9645331298828,239.54595068359373C230.99973312988283,241.81395068359376,223.8152331298828,238.62395068359376,221.4468331298828,236.25495068359373C218.15783312988282,232.96595068359375,158.9862331298828,167.22025068359375,149.0657331298828,162.22085068359374C149.0547331298828,162.21525068359375,149.0444331298828,162.21035068359376,149.0332331298828,162.20525068359376Q140.0268131298828,158.11725068359374,135.09794212988282,162.18445068359375C135.0746271298828,162.20365068359376,135.05318412988282,162.22305068359375,135.0322731298828,162.24495068359374ZM254.09983312988282,205.71125068359373C253.1538331298828,212.25675068359374,251.5818331298828,231.46725068359376,256.82283312988284,232.96495068359377Q262.3818331298828,234.55295068359374,278.67383312988284,216.20925068359375C279.1908331298828,215.62685068359374,278.8918331298828,214.69485068359376,278.1248331298828,214.55885068359373C266.33183312988285,212.46715068359373,265.4308331298828,212.07175068359373,255.6028331298828,205.06155068359374C255.0128331298828,204.64015068359373,254.2038331298828,204.99305068359376,254.09983312988282,205.71125068359373Z" fill-rule="evenodd" fill="#EDE8FF" fill-opacity="1"/></g><g><path d="M183.602783203125,113.67380146484375C183.602783203125,142.39380146484376,210.611883203125,144.10480146484375,240.956083203125,144.11340146484375C241.111283203125,144.11350146484375,241.263683203125,144.07730146484374,241.402583203125,144.00790146484377L248.183983203125,140.61720146484373C249.062383203125,140.17800146484376,248.839383203125,138.84990146484375,247.870883203125,138.68730146484376Q215.309983203125,133.22070146484376,207.460983203125,112.02840146484375Q200.888183203125,94.28200146484374,237.040883203125,73.38313746484376C237.065283203125,73.36900646484375,237.088083203125,73.35158446484375,237.108083203125,73.33161846484376C237.337483203125,73.10219746484375,237.127783203125,72.71588346484376,236.811683203125,72.78940946484374Q183.602783203125,85.16960146484375,183.602783203125,113.67380146484375Z" fill="#EDE8FF" fill-opacity="1"/></g><g><path d="M243.66130103710938,110.20153159179688C243.21189853710936,109.85193159179687,243.14457603710937,109.19833159179687,243.51330303710938,108.76453159179687L281.0288380371094,64.62863122931587Q286.0861380371094,65.29075259179687,291.11883803710936,66.22206159179687Q294.72113803710937,66.88868159179688,298.2853380371094,67.68835159179687L258.25743803710935,120.27393159179687C257.92043803710936,120.71663159179687,257.2869380371094,120.79923159179688,256.84773803710937,120.45763159179688L243.66130103710938,110.20153159179688ZM380.59523803710937,108.60263159179686L350.7072380371094,207.96063159179687C350.6442380371094,208.17063159179688,350.65123803710935,208.39463159179687,350.72823803710935,208.59963159179688L352.6592380371094,213.74863159179688C352.8782380371094,214.33163159179688,353.56923803710936,214.57463159179687,354.1042380371094,214.25863159179687L370.80223803710936,204.39163159179688C371.0412380371094,204.2506315917969,371.2112380371094,204.01563159179688,371.2702380371094,203.7446315917969L390.1442380371094,117.23953159179688Q385.5052380371094,112.75393159179688,380.59523803710937,108.60263159179686ZM307.02123803710936,347.50963159179685C307.0118380371094,347.38363159179687,307.0265380371094,347.2576315917969,307.06423803710936,347.13663159179686L324.17063803710937,292.5596315917969C324.2435380371094,292.32663159179685,324.3986380371094,292.1286315917969,324.60703803710936,292.0026315917969L353.5292380371094,274.4976315917969C354.2842380371094,274.0396315917969,355.21823803710936,274.7146315917969,355.0222380371094,275.5746315917969L330.38033803710937,383.6816315917969C330.2206380371094,384.38163159179686,329.39573803710937,384.6906315917969,328.81533803710937,384.26663159179685L309.0256380371094,369.80463159179686C308.7888380371094,369.63163159179686,308.6400380371094,369.3636315917969,308.61833803710937,369.0706315917969L307.02123803710936,347.50963159179685Z" fill-rule="evenodd" fill="#EDE8FF" fill-opacity="1"/></g><g style="opacity:0.4000000059604645;"><path d="M421.94668481445314,354.54503173828124Q419.82318481445316,358.11903173828125,417.54018481445314,361.61103173828127Q413.4021848144531,367.94103173828125,408.8067848144531,373.89803173828125C398.25058481445313,384.81203173828123,385.96368481445313,392.55603173828126,382.69508481445314,390.92203173828125Q378.22608481445315,388.68703173828123,379.82618481445314,351.3870317382813Q381.1962848144531,352.19603173828125,382.6172848144531,352.91203173828126Q384.03818481445313,353.62803173828127,385.5037848144531,354.24803173828127Q386.96928481445315,354.86703173828124,388.4727848144531,355.38803173828126Q389.97628481445315,355.90803173828124,391.51118481445315,356.32803173828125Q393.04608481445314,356.74703173828124,394.6054848144531,357.06303173828127Q396.1648848144531,357.37903173828124,397.7418848144531,357.59103173828123Q399.3188848144531,357.80203173828124,400.90638481445313,357.90803173828124Q402.49398481445314,358.01403173828123,404.0850848144531,358.01403173828123Q406.37528481445315,358.01403173828123,408.65498481445314,357.79503173828124Q410.93458481445316,357.57603173828124,413.18278481445316,357.13903173828123Q415.43098481445315,356.7020317382812,417.6269848144531,356.05203173828124Q419.8230848144531,355.40203173828127,421.94668481445314,354.54503173828124ZM446.45118481445314,287.26243173828124L445.8731848144531,287.26243173828124Q445.4891848144531,286.56563173828124,445.0821848144531,285.88213173828126Q444.67418481445316,285.19853173828125,444.2451848144531,284.52893173828124Q443.8151848144531,283.85933173828124,443.3631848144531,283.20443173828124Q442.9121848144531,282.54953173828125,442.4381848144531,281.91003173828125Q441.9651848144531,281.2706317382813,441.4711848144531,280.6472317382812Q440.9761848144531,280.02393173828125,440.46118481445313,279.41743173828127Q439.9461848144531,278.81083173828125,439.4121848144531,278.22183173828125Q438.87718481445313,277.63283173828125,438.3228848144531,277.06193173828126Q437.7687848144531,276.49113173828124,437.1958848144531,275.93903173828124Q436.6229848144531,275.3870317382813,436.03198481445315,274.85433173828125Q435.4410848144531,274.32163173828127,434.83268481445316,273.80903173828125Q434.22428481445314,273.29633173828125,433.5991848144531,272.80423173828126Q432.9739848144531,272.31213173828127,432.33278481445313,271.84113173828126Q431.6915848144531,271.37013173828126,431.0350848144531,270.92083173828127Q430.37848481445315,270.47143173828124,429.7073848144531,270.04423173828127Q429.0361848144531,269.61703173828124,428.3511848144531,269.2124317382812Q427.66608481445314,268.80783173828127,426.96798481445313,268.42633173828125Q426.2698848144531,268.04483173828123,425.5593848144531,267.68673173828125Q424.84888481445313,267.32873173828125,424.1268848144531,266.99453173828124Q423.4048848144531,266.66033173828123,422.6721848144531,266.35043173828126Q421.9393848144531,266.04053173828123,421.19668481445314,265.7552317382812Q420.45408481445315,265.4699317382813,419.70228481445315,265.20953173828127Q418.95048481445315,264.94913173828127,418.19048481445316,264.71393173828125Q417.43038481445313,264.47883173828126,416.6629848144531,264.2690317382812Q415.89548481445314,264.05933173828123,415.12148481445314,263.87533173828126Q414.34748481445314,263.69133173828124,413.56778481445315,263.53323173828124Q412.7880848144531,263.37513173828125,412.00348481445315,263.24313173828125Q411.21888481445313,263.11103173828127,410.43038481445313,263.0052317382812Q409.64188481445314,262.89943173828124,408.8502848144531,262.8200317382813Q408.05868481445316,262.7405317382813,407.26478481445315,262.6875317382812Q406.4709848144531,262.6345317382812,405.6758848144531,262.6080317382812Q404.8806848144531,262.5815317382812,404.0850848144531,262.5815317382812Q401.9406848144531,262.5815317382812,399.8047848144531,262.7738317382813Q397.6689848144531,262.96623173828124,395.5590848144531,263.3494317382812Q393.4490848144531,263.73253173828124,391.3819848144531,264.30343173828123Q389.3149848144531,264.8743317382812,387.30738481445314,265.6284317382813C387.2782848144531,259.69753173828127,387.7479848144531,253.64976173828126,390.09928481445314,252.70925173828124C394.21268481445316,251.06386173828125,424.65248481445315,247.77307173828126,430.4112848144531,249.41847273828125Q435.9487848144531,251.00062173828124,432.3582848144531,267.7960317382813C432.2139848144531,268.47133173828126,432.7798848144531,269.07803173828125,433.46618481445313,269.00223173828124Q446.12718481445313,267.60253173828124,447.6881848144531,269.16313173828127C448.00218481445313,269.47723173828126,448.2261848144531,270.3313317382813,448.37718481445313,271.50763173828125Q447.74018481445313,279.41493173828127,446.45118481445314,287.26243173828124ZM339.09227881445315,380.22703173828126C336.3581848144531,376.3990317382812,345.61824481445313,340.58693173828124,356.4843848144531,313.61763173828126Q356.56488481445314,314.7715317382813,356.70118481445314,315.92013173828127Q356.83748481445315,317.06873173828126,357.02928481445315,318.20943173828124Q357.22108481445315,319.3501317382812,357.4678848144531,320.4801317382812Q357.7146848144531,321.61023173828124,358.01598481445313,322.7269317382812Q358.3172848144531,323.84373173828124,358.6722848144531,324.9445317382813Q359.0273848144531,326.0453317382812,359.4352848144531,327.1277317382812Q359.8432848144531,328.21003173828126,360.3031848144531,329.2713317382812Q360.7631848144531,330.33263173828124,361.2739848144531,331.37043173828124Q361.78478481445313,332.40823173828124,362.3452848144531,333.42003173828124Q362.9057848144531,334.43183173828123,363.5146848144531,335.4153317382812Q364.12348481445315,336.39873173828124,364.77928481445315,337.35153173828127Q365.43508481445315,338.30433173828123,366.1362848144531,339.2242317382812Q366.83748481445315,340.14413173828126,367.5824848144531,341.0290317382812Q368.3273848144531,341.91383173828126,369.11428481445313,342.76163173828127Q369.9012848144531,343.60933173828124,370.72838481445314,344.41793173828125Q371.5554848144531,345.22653173828127,372.4207848144531,345.99403173828125C365.6577848144531,351.67903173828125,351.39998481445315,377.8080317382812,349.78728481445313,380.22703173828126C348.14188481445314,382.6950317382813,343.20571481445313,385.9860317382812,339.09227881445315,380.22703173828126Z" fill-rule="evenodd" fill="#EDE8FF" fill-opacity="1"/></g><g><path d="M85.96223900146484,347.30781201171874Q80.68044900146484,337.47381201171873,76.55087900146485,327.0418120117188Q73.45096900146484,319.21181201171873,71.05406136166485,311.1797120117187L151.46053900146484,216.72164801171874C151.89733900146484,216.20852401171874,152.70623900146484,216.26550501171874,153.06683900146484,216.83479201171875L167.59903900146486,239.78051201171874C167.82303900146485,240.13401201171874,167.80303900146484,240.58961201171874,167.54913900146482,240.92231201171876L86.63353900146484,346.92181201171877C86.45953900146485,347.1498120117187,86.21533900146484,347.2768120117188,85.96223900146484,347.30781201171874Z" fill-rule="evenodd" fill="#EDE8FF" fill-opacity="1"/></g><g style="opacity:0.4000000059604645;"><path d="M193.11451934814454,327.39896118164063C192.24151934814455,317.14896118164063,189.75051934814454,306.7529611816406,185.24851934814453,302.89396118164063Q182.62251934814452,300.64296118164066,180.68151934814455,301.12896118164065Q178.37351934814453,301.7049611816406,177.03251934814455,306.1469611816406C177.02451934814454,306.17196118164065,177.01851934814454,306.19696118164063,177.01351934814454,306.22296118164064Q174.54451934814455,317.7019611816406,169.61751934814453,317.7019611816406Q164.72051934814453,317.7019611816406,162.2523193481445,315.27296118164065C162.22601934814452,315.24696118164064,162.20191934814454,315.21996118164066,162.17881934814454,315.19196118164064Q149.03371934814453,298.7799611816406,136.70921934814453,298.7799611816406C133.70721934814452,298.7799611816406,130.99731934814452,299.4619611816406,128.63871934814455,300.59996118164065L118.50491934814454,313.8489611816406C118.31441934814453,315.19696118164063,118.34361934814453,316.5029611816406,118.60991934814453,317.7019611816406C119.16041934814453,320.1789611816406,120.81611934814453,320.0779611816406,123.82351934814453,319.89396118164063C129.7729193481445,319.5299611816406,141.01231934814453,318.84096118164064,159.45031934814455,337.15296118164065C159.63851934814454,337.33996118164066,159.74431934814453,337.58496118164067,159.74621934814454,337.84996118164065C159.75681934814452,339.2939611816406,159.82071934814454,341.01196118164063,159.88891934814453,342.8479611816406C160.1778193481445,350.6159611816406,160.54461934814452,360.4819611816406,157.27661934814455,360.4819611816406C153.16311934814453,360.4819611816406,132.59601934814452,341.55996118164063,120.25541934814453,339.9149611816406C107.91481934814453,338.26896118164063,98.86521934814454,340.7379611816406,93.92911934814452,348.96496118164066C92.19131934814453,351.8609611816406,91.88101934814453,355.36896118164066,92.81881934814453,359.0579611816406Q92.89511934814453,359.1789611816406,92.97151934814454,359.2999611816406Q93.70701934814453,360.45996118164067,94.45991934814452,361.6109611816406Q98.78851934814453,368.2319611816406,103.61771934814453,374.44696118164063C105.41131934814453,375.9189611816406,107.39731934814452,377.3089611816406,109.56031934814453,378.5819611816406Q111.81151934814453,379.90596118164063,115.38421934814454,380.6119611816406C133.38651934814453,375.46096118164064,157.17431934814454,371.61996118164063,183.41651934814453,369.6229611816406L183.8585193481445,368.78296118164064C183.88351934814455,368.73396118164067,183.90451934814453,368.6839611816406,183.92251934814453,368.63196118164063Q190.92751934814453,347.27396118164063,193.11451934814454,327.39896118164063ZM71.85839934814453,198.19349118164064Q72.06107934814453,197.54808018164061,72.26834934814453,196.90396118164062C72.31875934814454,196.96613308164063,72.36921934814453,197.02803918164062,72.41974934814453,197.08968018164063Q72.58419934814454,199.56636118164062,73.20521934814454,201.96814118164062Q73.36781934814454,202.59702118164063,73.56105934814454,203.21719118164063Q73.75430934814453,203.83736118164063,73.97773934814452,204.44739118164063Q74.20115934814453,205.05741118164062,74.45421934814453,205.65587118164063Q74.70731934814454,206.25433118164062,74.98951934814453,206.83983118164062Q75.27171934814453,207.42536118164062,75.58231934814454,207.99646118164063Q75.89291934814453,208.56766118164063,76.23121934814453,209.12316118164063Q76.56951934814452,209.67876118164062,76.93471934814453,210.21726118164062Q77.29991934814453,210.75586118164063,77.69111934814453,211.27626118164062Q78.08241934814453,211.79666118164062,78.49881934814454,212.29766118164062Q78.91521934814453,212.79856118164062,79.35581934814454,213.27896118164062Q79.79641934814452,213.75936118164063,80.26011934814453,214.21806118164062Q80.72391934814453,214.67676118164061,81.20971934814453,215.11266118164062Q81.69551934814453,215.54866118164063,82.20231934814453,215.96076118164063Q82.70911934814453,216.37296118164062,83.23561934814452,216.76036118164063Q83.76211934814452,217.14776118164062,84.30721934814453,217.50956118164063Q84.85221934814453,217.87136118164062,85.41461934814453,218.20656118164064Q85.99631934814454,218.5534611816406,86.59521934814452,218.87116118164062Q87.19401934814454,219.18886118164062,87.80841934814453,219.47656118164062Q88.42281934814453,219.76426118164062,89.05121934814453,220.02126118164063Q89.67961934814453,220.27826118164063,90.32051934814453,220.50396118164062Q90.96141934814453,220.72966118164064,91.61321934814453,220.92336118164062Q92.26501934814453,221.11716118164063,92.92601934814454,221.2785611816406Q93.58701934814454,221.43986118164062,94.25561934814453,221.56846118164063Q94.92421934814453,221.69706118164063,95.59881934814453,221.79256118164062Q96.27331934814453,221.88806118164064,96.95221934814452,221.95016118164062Q97.63101934814453,222.0122611816406,98.31231934814454,222.04096118164063Q98.99371934814454,222.06956118164064,99.67591934814453,222.06466118164062Q100.35821934814453,222.05966118164062,101.03961934814453,222.02116118164062Q101.72101934814452,221.98266118164062,102.39991934814452,221.91066118164062Q103.07871934814453,221.83876118164062,103.75341934814453,221.73346118164062Q104.42801934814453,221.62826118164062,105.09681934814452,221.48996118164064Q105.76551934814452,221.35166118164062,106.42671934814453,221.18066118164063Q107.08781934814454,221.0097611816406,107.73981934814452,220.80656118164063Q108.39181934814454,220.60336118164062,109.03291934814453,220.36836118164064Q109.67401934814453,220.13346118164063,110.30261934814453,219.86726118164063Q110.93131934814454,219.60116118164063,111.54601934814454,219.30456118164062Q112.16061934814454,219.0079611816406,112.75981934814453,218.68156118164063Q113.35891934814452,218.35526118164063,113.94101934814452,217.99986118164063Q114.52311934814453,217.64456118164063,115.08671934814453,217.26116118164063Q115.65031934814454,216.87786118164064,116.19401934814454,216.46736118164063Q116.73781934814454,216.0568611816406,117.26031934814453,215.62026118164061Q117.78271934814452,215.18376118164062,118.28271934814452,214.72216118164062Q118.78261934814452,214.26056118164064,119.25881934814453,213.7751611816406Q119.73501934814453,213.2897611816406,120.18621934814453,212.78176118164063Q120.63731934814453,212.27366118164062,121.06241934814453,211.74426118164064Q121.48751934814453,211.21486118164063,121.88541934814452,210.66546118164064Q122.28341934814453,210.1159611816406,122.65321934814453,209.54786118164063Q123.02291934814454,208.97966118164064,123.36371934814453,208.39426118164062Q123.60451934814452,207.9805611816406,123.83041934814453,207.55876118164062C128.58211934814454,208.33646118164063,136.88801934814452,213.65956118164064,141.33681934814453,220.32306118164064L122.14531934814454,242.82396118164064C117.81711934814453,242.62416118164063,117.58211934814453,240.1270611816406,117.29621934814453,237.08936118164064C116.84151934814453,232.25726118164062,116.25811934814453,226.05716118164062,98.86531934814454,225.56016118164064C77.05771934814453,224.93716118164062,69.87865934814454,237.99886118164062,66.96389934814454,243.30206118164062C66.03006934814454,245.00106118164064,65.53394934814453,245.90376118164062,65.13469734814453,245.30486118164063C64.61564534814453,244.52636118164062,64.26033184814453,240.06376118164061,64.24952913914453,234.06076118164063Q64.25339419814453,234.02696118164062,64.25733190814454,233.99266118164064Q65.01276134814454,227.41606118164063,66.22206934814453,220.88116118164064Q68.35758934814453,209.3410611816406,71.85839934814453,198.19349118164064ZM92.66741934814453,277.3851611816406L112.52981934814453,254.09756118164063Q112.45271934814454,253.67566118164063,112.35741934814453,253.25746118164062Q112.26211934814452,252.8392611816406,112.14871934814454,252.42556118164063Q112.03531934814453,252.01186118164063,111.90401934814453,251.60346118164063Q111.77281934814454,251.19516118164063,111.62391934814454,250.79286118164063Q111.47501934814453,250.39056118164063,111.30881934814454,249.99516118164064Q111.14261934814454,249.5996611816406,110.95941934814454,249.21186118164061Q110.77621934814454,248.82406118164062,110.57631934814452,248.44446118164063Q110.37641934814454,248.06496118164063,110.16031934814453,247.69446118164063Q109.94411934814454,247.32396118164064,109.71201934814454,246.96326118164063Q109.48001934814454,246.60256118164062,109.23251934814454,246.25216118164062Q108.98501934814453,245.90186118164064,108.72251934814453,245.56266118164064Q108.46001934814453,245.22336118164063,108.18301934814454,244.8958611816406Q107.90601934814453,244.56836118164063,107.61511934814453,244.25316118164062Q107.32421934814454,243.93796118164062,107.01981934814452,243.63566118164061Q106.71551934814454,243.33346118164062,106.39831934814453,243.04466118164063Q106.08111934814454,242.75586118164063,105.75171934814453,242.48116118164063Q105.42221934814452,242.20646118164063,105.08121934814453,241.9463611816406Q104.74011934814453,241.6861611816406,104.38811934814453,241.4411611816406Q104.03611934814452,241.19606118164063,103.67381934814453,240.96646118164062Q103.31141934814454,240.73686118164062,102.93941934814453,240.52326118164063Q102.56751934814453,240.30966118164062,102.18661934814453,240.1123611816406Q101.80571934814452,239.91516118164063,101.41661934814454,239.73466118164063Q101.02751934814452,239.55406118164063,100.63091934814453,239.3906611816406Q100.23441934814454,239.2271611816406,99.83111934814454,239.08106118164062Q99.42781934814454,238.93496118164063,99.01851934814454,238.80656118164063Q98.60931934814454,238.67806118164063,98.19481934814453,238.56756118164063Q97.78041934814453,238.45706118164063,97.36151934814453,238.36456118164062Q96.94261934814453,238.27216118164063,96.52021934814454,238.1979611816406Q96.09771934814452,238.12386118164062,95.67241934814453,238.06806118164062Q95.24711934814454,238.01236118164064,94.81981934814453,237.97516118164063Q94.39241934814453,237.93786118164064,93.96391934814453,237.91926118164062Q93.53541934814453,237.90066118164063,93.10641934814453,237.90066118164063Q92.62171934814452,237.90066118164063,92.13761934814454,237.92446118164062Q91.65351934814453,237.94816118164061,91.17111934814453,237.99576118164063Q90.68871934814453,238.04326118164062,90.20931934814453,238.11436118164062Q89.72981934814453,238.18546118164062,89.25441934814452,238.28006118164063Q88.77901934814453,238.37456118164062,88.30891934814453,238.49236118164063Q87.83871934814454,238.61016118164062,87.37481934814453,238.75086118164063Q86.91101934814454,238.8915611816406,86.45461934814453,239.05486118164063Q85.99831934814453,239.21816118164062,85.55051934814453,239.4035611816406Q85.10271934814453,239.58906118164063,84.66451934814452,239.79636118164063Q84.22631934814453,240.00356118164063,83.79881934814453,240.23206118164063Q83.37141934814453,240.46056118164063,82.95561934814452,240.70976118164063Q82.53991934814454,240.95896118164063,82.13691934814453,241.22816118164062Q81.73391934814452,241.49746118164063,81.34451934814453,241.7862611816406Q80.95521934814454,242.07496118164062,80.58051934814453,242.38246118164062Q80.20591934814453,242.68996118164063,79.84671934814453,243.01546118164063Q79.48761934814453,243.34096118164064,79.14481934814454,243.68376118164062Q78.80211934814453,244.02646118164063,78.47661934814454,244.38556118164064Q78.15111934814453,244.74476118164063,77.84361934814453,245.11946118164062Q77.53611934814452,245.49406118164063,77.24731934814453,245.88346118164063Q76.95861934814454,246.27276118164062,76.68931934814454,246.6757611816406Q76.42001934814454,247.07876118164063,76.17081934814453,247.49446118164062Q75.92171934814453,247.91026118164064,75.69321934814454,248.33776118164062Q75.46471934814453,248.76516118164062,75.25741934814454,249.20336118164062Q75.05021934814454,249.6415611816406,74.86471934814453,250.08936118164064Q74.67921934814453,250.5371611816406,74.51591934814454,250.99356118164062Q74.35261934814453,251.44986118164064,74.21195934814453,251.9137611816406Q74.07125934814454,252.37756118164063,73.95348934814453,252.84776118164064Q73.83570934814453,253.3179611816406,73.74114934814453,253.79336118164062Q73.64658934814453,254.26866118164062,73.57546934814454,254.74816118164063Q73.50434934814453,255.22766118164063,73.45683934814453,255.7099611816406Q73.40932934814452,256.19236118164065,73.38554934814454,256.6764611816406Q73.36175934814453,257.1605611816406,73.36175934814453,257.6453611816406Q73.36175934814453,258.1231611816406,73.38487934814454,258.60046118164064Q73.40798934814453,259.07776118164065,73.45416934814453,259.55336118164064Q73.50034934814454,260.0289611816406,73.56946934814454,260.50176118164063Q73.63859934814454,260.97456118164064,73.73051934814453,261.4434611816406Q73.82243934814453,261.9123611816406,73.93692934814453,262.3763611816406Q74.05142934814452,262.84026118164064,74.18822934814453,263.2980611816406Q74.32501934814454,263.7559611816406,74.48381934814454,264.2065611816406Q74.64261934814454,264.6572611816406,74.82301934814453,265.09976118164064Q75.00341934814453,265.54226118164064,75.20501934814453,265.97546118164064Q75.40661934814453,266.40866118164064,75.62891934814454,266.83166118164064Q75.85121934814453,267.25466118164064,76.09371934814453,267.66636118164064Q76.33631934814453,268.07806118164063,76.59841934814453,268.4775611816406Q76.86061934814452,268.8770611816406,77.14171934814453,269.26346118164065Q77.42291934814453,269.64986118164063,77.72241934814453,270.0221611816406Q78.02201934814454,270.3944611816406,78.33921934814452,270.7518611816406Q78.65641934814454,271.1091611816406,78.99051934814453,271.4508611816406Q79.32461934814454,271.79246118164065,79.67481934814452,272.11746118164064Q80.02501934814453,272.4425611816406,80.39061934814453,272.7502611816406Q80.75621934814453,273.0580611816406,81.13621934814454,273.34776118164064Q81.51621934814453,273.6374611816406,81.90981934814454,273.90836118164066Q82.30331934814453,274.1793611816406,82.70961934814453,274.4309611816406Q83.11581934814453,274.6825611816406,83.53371934814453,274.91426118164065Q83.95171934814454,275.14596118164064,84.38031934814452,275.35706118164063Q84.80891934814453,275.56826118164065,85.24731934814453,275.75846118164066Q85.68561934814453,275.94866118164066,86.13271934814453,276.11746118164064Q86.57971934814454,276.2862611816406,87.03441934814452,276.4331611816406Q87.48911934814453,276.5801611816406,87.95041934814454,276.70486118164064Q88.41161934814453,276.82966118164063,88.87841934814453,276.93196118164065Q89.34511934814454,277.03436118164063,89.81631934814453,277.1139611816406Q90.28751934814453,277.19356118164063,90.76191934814453,277.25036118164064Q91.23641934814452,277.3070611816406,91.71301934814453,277.34076118164063Q92.18971934814454,277.37446118164064,92.66741934814453,277.3851611816406ZM159.7446193481445,297.1349611816406C154.80851934814453,293.8438611816406,138.35451934814455,293.02116118164065,138.35451934814455,290.5530611816406C138.35451934814455,288.22616118164063,155.90551934814454,264.6918611816406,167.56551934814453,252.35516118164063C168.2215193481445,251.66076118164062,169.36051934814452,252.21096118164064,169.24251934814453,253.15906118164062Q165.82051934814453,280.5394611816406,169.35951934814454,281.4706611816406Q169.4835193481445,281.50346118164066,169.61651934814455,281.50346118164066C173.73051934814453,281.50346118164066,180.31151934814454,286.43966118164064,177.02151934814452,290.5530611816406C173.73051934814453,294.66656118164065,170.43951934814453,302.89396118164063,167.9715193481445,302.89396118164063C165.50351934814455,302.89396118164063,164.68051934814451,300.42496118164064,159.7446193481445,297.1349611816406Z" fill-rule="evenodd" fill="#EDE8FF" fill-opacity="1"/></g></g></svg>