<svg xmlns="http://www.w3.org/2000/svg" xmlns:xlink="http://www.w3.org/1999/xlink" fill="none" version="1.1" width="512" height="512" viewBox="0 0 512 512"><g><rect x="0" y="0" width="512" height="512" rx="256" fill="#5A56BF" fill-opacity="1"/><g></g><g><g><ellipse cx="425.95448875427246" cy="346.9758367538452" rx="12.709218978881836" ry="9.98581600189209" fill="#EDE8FF" fill-opacity="1"/></g><g><path d="M378.2484512214594,301.5998455566406Q378.6304205683594,300.5016455566406,379.07040856835937,299.4254455566406Q379.51039256835935,298.34924555664065,380.0071525683594,297.2979455566406Q380.50390256835936,296.24674555664063,381.0560125683594,295.2235455566406Q381.60812256835936,294.20024555664065,382.21401256835935,293.20794555664065Q382.8199025683594,292.2155455566406,383.47785256835937,291.25694555664063Q384.13579256835936,290.29834555664064,384.8439325683594,289.3761455566406Q385.55206256835936,288.45394555664063,386.30836256835937,287.5708455566406Q387.0646625683594,286.6877455566406,387.8669825683594,285.8462455566406Q388.6692825683594,285.00475555664065,389.51538256835937,284.20722555664065Q390.3613825683594,283.40970555664063,391.2487825683594,282.6584255566406Q392.1361825683594,281.90715555664065,393.0623825683594,281.20427555664065Q393.9885825683594,280.5013855566406,394.95088256835936,279.8488955566406Q395.91328256835936,279.1964055566406,396.90898256835936,278.59616555664064Q397.9047825683594,277.9959255566406,398.93118256835936,277.4496355566406Q399.95748256835935,276.90335555664063,401.01158256835936,276.4125775566406Q402.0655825683594,275.9218035566406,403.14428256835936,275.48793669151064Q403.50028256835935,275.5192212566406,403.8527825683594,275.5603625566406Q404.2052825683594,275.60150355664064,404.55388256835937,275.65245355664064Q404.90248256835935,275.70340255664064,405.2467825683594,275.76409955664064Q405.59108256835935,275.82479755664065,405.9305825683594,275.8951705566406Q406.27018256835936,275.9655435566406,406.60468256835935,276.04551055664064Q406.9391825683594,276.12547655664065,407.26818256835935,276.2149415566406Q407.5970825683594,276.30440555664063,407.9201825683594,276.40326355664064Q408.2432825683594,276.50212555664064,408.56008256835935,276.61025555664065Q408.87688256835935,276.7183855566406,409.1869825683594,276.8356655566406Q409.4971825683594,276.9529455566406,409.80028256835936,277.07923555664064Q410.1033825683594,277.2055355566406,410.3991825683594,277.3406855566406Q410.6948825683594,277.4758355566406,410.9829825683594,277.6196855566406Q411.2709825683594,277.76353555664065,411.55098256835936,277.91591555664064Q411.83088256835936,278.06829555664063,412.1024825683594,278.22902555664064Q412.3739825683594,278.3897655566406,412.6368825683594,278.55865555664064Q412.89968256835937,278.7275455566406,413.1534825683594,278.9043955566406Q413.40738256835937,279.0812455566406,413.6518825683594,279.26585555664064Q413.89628256835937,279.45045555664063,414.13118256835935,279.64259555664063Q414.3660825683594,279.8347355566406,414.59108256835935,280.0341755566406Q414.81598256835935,280.2336255566406,415.03078256835937,280.4401355566406Q415.24568256835937,280.64664555664064,415.4500825683594,280.8599955566406Q415.65448256835936,281.07333555664064,415.8481825683594,281.2932455566406Q416.04188256835937,281.5131655566406,416.2247825683594,281.7393955566406Q416.4075825683594,281.96562555664065,416.5793825683594,282.1978955566406Q416.75118256835935,282.4301755566406,416.9115825683594,282.6682255566406Q417.0719825683594,282.90627555664065,417.2209825683594,283.14981555664065Q417.3699825683594,283.39335555664064,417.5071825683594,283.64209555664064Q417.64448256835936,283.89083555664064,417.76998256835935,284.14448555664063Q417.89538256835937,284.3981455566406,418.00888256835935,284.6564055566406Q418.1223825683594,284.9146655566406,418.2236825683594,285.1772255566406Q418.3250825683594,285.4397955566406,418.41418256835937,285.7063455566406Q418.5032825683594,285.97294555664064,418.5800825683594,286.2431455566406Q418.6896825683594,286.6290455566406,418.7738825683594,287.0215455566406Q418.8581825683594,287.4141455566406,418.91688256835937,287.8124455566406Q418.9754825683594,288.2108455566406,419.0084825683594,288.6139455566406Q419.0413825683594,289.0170455566406,419.0485825683594,289.42404555664064Q419.0556825683594,289.8310455566406,419.0370825683594,290.24084555664064Q419.01838256835936,290.6506455566406,418.97398256835936,291.06234555664065Q418.9294825683594,291.47404555664065,418.85938256835936,291.8865455566406Q418.7892825683594,292.2991455566406,418.69368256835935,292.7115455566406Q418.59808256835936,293.12394555664065,418.4772825683594,293.53524555664063Q418.3563825683594,293.94664555664065,418.2104825683594,294.35584555664065Q418.0646825683594,294.76504555664064,417.8941825683594,295.1711455566406Q417.72378256835935,295.5772455566406,417.5290825683594,295.97924555664065Q417.3343825683594,296.3813455566406,417.11598256835936,296.7783455566406Q416.8975825683594,297.17534555664065,416.6558825683594,297.5663455566406Q416.4142825683594,297.95734555664063,416.1499825683594,298.3414455566406Q415.88568256835936,298.72544555664064,415.5993825683594,299.1016455566406Q415.31318256835937,299.47794555664063,415.0055825683594,299.8453455566406Q414.69798256835935,300.21274555664064,414.36978256835937,300.57054555664064Q414.04168256835936,300.92834555664064,413.69368256835935,301.2755455566406Q413.34578256835937,301.62284555664064,412.9788825683594,301.9587455566406Q412.61208256835937,302.2946455566406,412.2270825683594,302.6184455566406Q411.84218256835936,302.94214555664064,411.4401825683594,303.2529455566406Q411.03808256835936,303.56374555664064,410.61988256835934,303.8609455566406Q410.2016825683594,304.1580455566406,409.7682825683594,304.44074555664065Q409.3348825683594,304.7234455566406,408.8873825683594,304.99104555664064Q408.43998256835937,305.2586455566406,407.9794825683594,305.51054555664064Q407.5189825683594,305.7624455566406,407.04648256835935,305.9979455566406Q406.57408256835936,306.23354555664065,406.09088256835935,306.45214555664063Q405.6076825683594,306.67084555664064,405.1147825683594,306.8720455566406Q404.6219825683594,307.07324555664064,404.12078256835935,307.2565455566406Q403.6194825683594,307.43984555664065,403.11098256835936,307.60474555664064Q402.6024825683594,307.7696455566406,402.0879825683594,307.91584555664065Q401.4221825683594,308.1050455566406,400.74868256835936,308.26214555664063Q400.07518256835937,308.41924555664065,399.3966825683594,308.54354555664065Q398.71828256835937,308.66794555664063,398.03758256835937,308.75914555664065Q397.35688256835937,308.8503455566406,396.6767825683594,308.9078455566406Q395.99668256835935,308.96544555664065,395.31978256835936,308.98924555664064Q394.64288256835937,309.0129455566406,393.9720825683594,309.00284555664064Q393.3012825683594,308.99264555664064,392.63908256835936,308.9486455566406Q391.9769825683594,308.9046455566406,391.3261825683594,308.8269455566406Q390.67548256835937,308.74914555664066,390.03878256835935,308.63804555664063Q389.40198256835936,308.5269455566406,388.7818825683594,308.3829455566406Q388.1616925683594,308.2389455566406,387.5606125683594,308.0625455566406Q386.95953256835935,307.8861455566406,386.3799525683594,307.67814555664063Q385.8003825683594,307.4701455566406,385.24465256835936,307.23134555664063Q384.6889125683594,306.99244555664063,384.1592625683594,306.72384555664064Q383.6296125683594,306.4551455566406,383.12818256835936,306.15774555664063Q382.6267525683594,305.8603455566406,382.15556256835936,305.5353455566406Q380.95559256835935,304.70774555664065,379.9724225683594,303.71744555664066Q378.98924856835936,302.7271455566406,378.2484512214594,301.5998455566406Z" fill-rule="evenodd" fill="#EDE8FF" fill-opacity="1"/><path d="M403.14428256835936,275.48793669151064Q402.0655825683594,275.9218035566406,401.01158256835936,276.4125775566406Q399.95748256835935,276.90335555664063,398.93118256835936,277.4496355566406Q397.9047825683594,277.9959255566406,396.90898256835936,278.59616555664064Q395.91328256835936,279.1964055566406,394.95088256835936,279.8488955566406Q393.9885825683594,280.5013855566406,393.0623825683594,281.20427555664065Q392.1361825683594,281.90715555664065,391.2487825683594,282.6584255566406Q390.3613825683594,283.4096955566406,389.51538256835937,284.20722555664065Q388.6692825683594,285.00475555664065,387.8669825683594,285.8462455566406Q387.0646625683594,286.6877455566406,386.30836256835937,287.5708455566406Q385.55206256835936,288.45394555664063,384.8439325683594,289.3761455566406Q384.13579256835936,290.29834555664064,383.47785256835937,291.25694555664063Q382.8199025683594,292.2155455566406,382.21401256835935,293.20794555664065Q381.60812256835936,294.20024555664065,381.0560125683594,295.2235455566406Q380.50390256835936,296.24674555664063,380.0071525683594,297.2979455566406Q379.51039256835935,298.34924555664065,379.07040856835937,299.4254455566406Q378.6304205683594,300.5016455566406,378.2484512214594,301.5998455566406Q378.98924856835936,302.7271455566406,379.9724225683594,303.71744555664066Q380.95559256835935,304.70774555664065,382.15556256835936,305.5353455566406Q382.6267525683594,305.8603455566406,383.12818256835936,306.15774555664063Q383.6296125683594,306.4551455566406,384.1592625683594,306.72384555664064Q384.6889125683594,306.99244555664063,385.24465256835936,307.23134555664063Q385.8003825683594,307.4701455566406,386.3799525683594,307.67814555664063Q386.95953256835935,307.8861455566406,387.5606125683594,308.0625455566406Q388.1616925683594,308.2389455566406,388.7818825683594,308.3829455566406Q389.40198256835936,308.5269455566406,390.03878256835935,308.63804555664063Q390.67548256835937,308.74914555664066,391.3261825683594,308.8269455566406Q391.9769825683594,308.9046455566406,392.63908256835936,308.9486455566406Q393.3012825683594,308.99264555664064,393.9720825683594,309.00284555664064Q394.64288256835937,309.0129455566406,395.31978256835936,308.98924555664064Q395.99668256835935,308.96544555664065,396.6767825683594,308.9078455566406Q397.35688256835937,308.8503455566406,398.03758256835937,308.75914555664065Q398.71828256835937,308.66794555664063,399.3966825683594,308.54354555664065Q400.07518256835937,308.41924555664065,400.74868256835936,308.26214555664063Q401.4221825683594,308.1050455566406,402.0879825683594,307.91584555664065Q402.6024825683594,307.7696455566406,403.11098256835936,307.60474555664064Q403.6194825683594,307.43984555664065,404.12078256835935,307.2565455566406Q404.6219825683594,307.07324555664064,405.1147825683594,306.8720455566406Q405.6076825683594,306.67084555664064,406.09088256835935,306.45214555664063Q406.57408256835936,306.23354555664065,407.04648256835935,305.9979455566406Q407.5189825683594,305.7624455566406,407.9794825683594,305.51054555664064Q408.43998256835937,305.2586455566406,408.88748256835936,304.99104555664064Q409.3348825683594,304.7234455566406,409.7682825683594,304.44074555664065Q410.2016825683594,304.1580455566406,410.61988256835934,303.8609455566406Q411.03808256835936,303.56374555664064,411.4401825683594,303.2529455566406Q411.84218256835936,302.94214555664064,412.2270825683594,302.6184455566406Q412.61208256835937,302.2946455566406,412.9788825683594,301.9587455566406Q413.34578256835937,301.62284555664064,413.69368256835935,301.2755455566406Q414.04168256835936,300.92834555664064,414.36978256835937,300.57054555664064Q414.69798256835935,300.21274555664064,415.0055825683594,299.8453455566406Q415.31318256835937,299.4778455566406,415.5993825683594,299.1016455566406Q415.88568256835936,298.72544555664064,416.1499825683594,298.3414455566406Q416.4142825683594,297.95734555664063,416.6558825683594,297.5663455566406Q416.8975825683594,297.17534555664065,417.11598256835936,296.7783455566406Q417.3343825683594,296.3813455566406,417.5290825683594,295.97924555664065Q417.72378256835935,295.5772455566406,417.8941825683594,295.1711455566406Q418.0646825683594,294.76504555664064,418.2104825683594,294.35584555664065Q418.3563825683594,293.94664555664065,418.4772825683594,293.53524555664063Q418.59808256835936,293.12394555664065,418.69368256835935,292.7115455566406Q418.7892825683594,292.2991455566406,418.85938256835936,291.8865455566406Q418.9294825683594,291.47404555664065,418.97398256835936,291.06234555664065Q419.01838256835936,290.6506455566406,419.0370825683594,290.24084555664064Q419.0556825683594,289.8310455566406,419.0485825683594,289.42404555664064Q419.0413825683594,289.0170455566406,419.0084825683594,288.6139455566406Q418.9754825683594,288.2108455566406,418.91688256835937,287.8124455566406Q418.8581825683594,287.4141455566406,418.7738825683594,287.0215455566406Q418.6896825683594,286.6290455566406,418.5800825683594,286.2431455566406Q418.5032825683594,285.97294555664064,418.41418256835937,285.7063455566406Q418.3250825683594,285.4397955566406,418.2236825683594,285.1772255566406Q418.1223825683594,284.9146655566406,418.00888256835935,284.6564055566406Q417.89538256835937,284.3981455566406,417.76998256835935,284.14448555664063Q417.64448256835936,283.89083555664064,417.5071825683594,283.64209555664064Q417.3699825683594,283.39335555664064,417.2209825683594,283.14981555664065Q417.0719825683594,282.90627555664065,416.9115825683594,282.6682255566406Q416.75118256835935,282.4301755566406,416.5793825683594,282.1978955566406Q416.4075825683594,281.96562555664065,416.2247825683594,281.7393955566406Q416.04188256835937,281.5131655566406,415.8481825683594,281.2932455566406Q415.65448256835936,281.07333555664064,415.4500825683594,280.8599955566406Q415.24568256835937,280.64664555664064,415.03078256835937,280.4401355566406Q414.81598256835935,280.2336255566406,414.59108256835935,280.0341755566406Q414.3660825683594,279.8347355566406,414.13118256835935,279.64259555664063Q413.89628256835937,279.45045555664063,413.6518825683594,279.26585555664064Q413.40738256835937,279.0812455566406,413.1534825683594,278.9043955566406Q412.89968256835937,278.7275455566406,412.6368825683594,278.55865555664064Q412.3739825683594,278.3897655566406,412.1024825683594,278.22902555664064Q411.83088256835936,278.06829555664063,411.5508825683594,277.91591555664064Q411.2709825683594,277.76353555664065,410.9829825683594,277.6196855566406Q410.6948825683594,277.4758355566406,410.3991825683594,277.3406855566406Q410.1033825683594,277.2055355566406,409.80028256835936,277.07923555664064Q409.4971825683594,276.9529455566406,409.1869825683594,276.8356655566406Q408.87688256835935,276.7183855566406,408.56008256835935,276.61025555664065Q408.2432825683594,276.50212555664064,407.9201825683594,276.40326355664064Q407.5970825683594,276.30440555664063,407.26818256835935,276.2149415566406Q406.9391825683594,276.12547655664065,406.60468256835935,276.04551055664064Q406.27018256835936,275.9655435566406,405.9305825683594,275.8951705566406Q405.59108256835935,275.82479755664065,405.2467825683594,275.76409955664064Q404.90248256835935,275.70340255664064,404.55388256835937,275.65245355664064Q404.2052825683594,275.60150355664064,403.8527825683594,275.5603625566406Q403.50028256835935,275.5192212566406,403.14428256835936,275.48793669151064ZM403.73308256835935,279.57504555664065Q396.34148256835937,282.7544355566406,390.7619825683594,288.6064455566406Q385.59689256835935,294.0239455566406,382.79357256835937,300.8833455566406Q383.5164525683594,301.6148455566406,384.42654256835937,302.2425455566406Q387.4636625683594,304.3371455566406,391.80058256835935,304.85514555664065Q396.32358256835937,305.39524555664065,400.9948825683594,304.0681455566406Q404.43328256835935,303.0912455566406,407.34578256835937,301.2430455566406Q410.4353825683594,299.2825455566406,412.4162825683594,296.67944555664064Q414.2877825683594,294.2200455566406,414.83928256835935,291.61764555664064Q415.3133825683594,289.3813455566406,414.73238256835936,287.33634555664065Q413.86208256835937,284.2733455566406,410.8667825683594,282.18629555664063Q407.9034825683594,280.1215555566406,403.73308256835935,279.57504555664065Z" fill-rule="evenodd" fill="#EDE8FF" fill-opacity="1"/></g><g><ellipse cx="419.40421295166016" cy="315.9148635864258" rx="39.57447052001953" ry="39.57447052001953" fill-opacity="0" stroke-opacity="1" stroke="#EDE8FF" fill="none" stroke-width="8"/></g><g transform="matrix(0.25033289194107056,0.9681598544120789,-0.9681598544120789,0.25033289194107056,230.27823609983307,22.731885049836364)"><g transform="matrix(1,1.4921001323386918e-8,-1.4921001323386918e-8,1,0.0000024137384144751195,-0.0000015185195252342965)"><path d="M101.77058233989284,175.91175743236542Q101.97748008109284,175.31695743236543,102.21580508109284,174.73395743236543Q102.45413008109283,174.15095743236543,102.72320408109283,173.58155743236543Q102.99227808109283,173.01215743236543,103.29133808109283,172.45795743236542Q103.59038808109284,171.9036574323654,103.91857808109283,171.3661374323654Q104.24676808109284,170.8286174323654,104.60314808109284,170.3093674323654Q104.95953808109283,169.7901074323654,105.34310808109284,169.29059743236542Q105.72667808109283,168.79108743236543,106.13633808109283,168.31274743236543Q106.54599808109283,167.83439743236542,106.98058808109283,167.3785874323654Q107.41516808109283,166.92276743236542,107.87344808109283,166.4907774323654Q108.33172808109283,166.05877743236542,108.81238808109283,165.65183743236543Q109.29304808109283,165.2448974323654,109.79472808109284,164.8641674323654Q110.29640808109284,164.4834474323654,110.81767808109284,164.13000743236543Q111.33893808109283,163.77657743236543,111.87831808109283,163.45144743236543Q112.41771808109283,163.12631743236543,112.97361808109284,162.8304074323654Q113.52961808109283,162.5345004323654,114.10051808109283,162.26866243236543Q114.67141808109284,162.00282543236543,115.25571808109284,161.7678120438654Q116.02201808109284,161.8351511323654,116.75331808109283,161.98597743236542Q117.48471808109284,162.1368034323654,118.16751808109284,162.36831443236542Q118.85041808109284,162.5998244323654,119.47201808109284,162.90771743236542Q120.09361808109284,163.21560743236543,120.64251808109283,163.59415743236542Q121.20021808109283,163.9787774323654,121.67221808109284,164.4289974323654Q122.14411808109284,164.8792274323654,122.52131808109283,165.38642743236542Q122.89851808109283,165.8936274323654,123.17371808109283,166.4480674323654Q123.44891808109284,167.0025174323654,123.61691808109283,167.5935674323654Q123.67621808109283,167.8025774323654,123.72191808109284,168.0152174323654Q123.76751808109283,168.22785743236543,123.79931808109284,168.44362743236542Q123.83111808109284,168.6593874323654,123.84891808109283,168.87774743236542Q123.86681808109283,169.09611743236542,123.87061808109283,169.3165574323654Q123.87451808109283,169.5369974323654,123.86441808109284,169.7589774323654Q123.85431808109283,169.98096743236542,123.83021808109284,170.20395743236543Q123.80621808109284,170.4269474323654,123.76821808109284,170.65041743236543Q123.73021808109283,170.87387743236542,123.67841808109284,171.09727743236542Q123.62661808109283,171.32067743236541,123.56121808109283,171.54346743236542Q123.49571808109283,171.76626743236542,123.41671808109284,171.98795743236542Q123.33771808109283,172.20955743236541,123.24541808109284,172.4295574323654Q123.15301808109284,172.6495574323654,123.04761808109284,172.86725743236542Q122.94211808109284,173.08505743236543,122.82381808109284,173.3001574323654Q122.70551808109283,173.5151574323654,122.57461808109284,173.72695743236542Q122.44371808109284,173.9387574323654,122.30061808109284,174.1467574323654Q122.15741808109283,174.3548574323654,122.00241808109283,174.5585574323654Q121.84731808109284,174.7623574323654,121.68071808109283,174.96145743236542Q121.51411808109283,175.1604574323654,121.33631808109283,175.35425743236542Q121.15861808109284,175.54805743236543,120.97011808109283,175.73615743236542Q120.78161808109283,175.9242574323654,120.58291808109283,176.10615743236542Q120.38421808109284,176.2881574323654,120.17571808109284,176.46345743236543Q119.96721808109284,176.63885743236543,119.74941808109284,176.80725743236542Q119.53161808109283,176.9755574323654,119.30511808109284,177.1365574323654Q119.07861808109283,177.2974574323654,118.84381808109283,177.45055743236543Q118.60911808109283,177.60375743236543,118.36671808109284,177.7486574323654Q118.12431808109284,177.89365743236542,117.87491808109283,178.03005743236542Q117.62541808109283,178.1665574323654,117.36951808109283,178.2940574323654Q117.11361808109284,178.4216574323654,116.85191808109283,178.54015743236542Q116.59011808109284,178.65855743236543,116.32321808109283,178.7675574323654Q116.05621808109284,178.87655743236542,115.78471808109283,178.97585743236542Q115.51321808109283,179.0750574323654,115.23781808109284,179.16445743236542Q114.96241808109284,179.25375743236543,114.68371808109283,179.33295743236542Q114.44611808109283,179.4004574323654,114.20661808109284,179.46045743236542Q113.96711808109283,179.52045743236542,113.72611808109284,179.57275743236542Q113.48511808109284,179.62515743236543,113.24301808109283,179.6698574323654Q113.00101808109284,179.7144574323654,112.75831808109284,179.7513574323654Q112.51561808109284,179.7881574323654,112.27271808109283,179.8172574323654Q112.02971808109284,179.8462574323654,111.78701808109284,179.86735743236542Q111.54430808109284,179.8884574323654,111.30221808109283,179.90155743236542Q111.06013808109283,179.9147574323654,110.81909808109283,179.9199574323654Q110.57806808109284,179.9251574323654,110.33851808109283,179.9223574323654Q110.09895808109283,179.91965743236543,109.86129808109284,179.9088574323654Q109.62363808109284,179.89815743236542,109.38829808109284,179.87945743236543Q109.15294808109283,179.8607574323654,108.92032808109283,179.83415743236543Q108.68770808109284,179.80755743236543,108.45821808109284,179.77305743236542Q108.22872808109284,179.7385574323654,108.00276808109284,179.69625743236543Q107.77681808109284,179.65395743236542,107.55479808109284,179.6039574323654Q107.33276808109284,179.55395743236542,107.11505808109284,179.4962574323654Q106.89735808109283,179.43855743236543,106.68434808109284,179.37335743236542Q106.47134808109283,179.30805743236542,106.26340808109283,179.23545743236542Q106.05547808109283,179.16275743236542,105.85297808109283,179.08285743236542Q105.65048808109283,179.00285743236543,105.45377808109284,178.9157574323654Q105.25707808109283,178.82855743236541,105.06650808109283,178.73445743236542Q104.87594808109283,178.64025743236542,104.69184808109283,178.53925743236542Q104.50774808109283,178.43825743236542,104.33044808109284,178.33065743236543Q104.15313808109283,178.22295743236543,103.98293808109284,178.10875743236542Q103.81273808109283,177.99465743236541,103.64993808109284,177.87425743236543Q103.48713808109284,177.75375743236543,103.33201808109284,177.6272574323654Q103.17690808109283,177.50075743236542,103.02974808109283,177.36835743236543Q102.88259808109284,177.2360574323654,102.74365508109284,177.0980574323654Q102.60471508109283,176.96005743236543,102.47423308109283,176.81675743236542Q102.34375208109283,176.6733574323654,102.22195808109284,176.52485743236542Q102.10016308109283,176.3763574323654,101.98727008109283,176.2230574323654Q101.87437708109283,176.06965743236543,101.77058233989284,175.91175743236542Z" fill-rule="evenodd" fill="#EDE8FF" fill-opacity="1"/><path d="M115.25571808109284,161.7678120438654Q114.67141808109284,162.00282543236543,114.10051808109283,162.26866243236543Q113.52961808109283,162.5345004323654,112.97361808109284,162.8304074323654Q112.41771808109283,163.12631743236543,111.87831808109283,163.45144743236543Q111.33893808109283,163.77657743236543,110.81767808109284,164.13000743236543Q110.29640808109284,164.4834474323654,109.79472808109284,164.8641674323654Q109.29304808109283,165.2448974323654,108.81238808109283,165.65183743236543Q108.33172808109283,166.05877743236542,107.87344808109283,166.4907774323654Q107.41516808109283,166.92276743236542,106.98058808109283,167.3785874323654Q106.54599808109283,167.83439743236542,106.13633808109283,168.31274743236543Q105.72667808109283,168.79108743236543,105.34310808109284,169.29059743236542Q104.95953808109283,169.7901074323654,104.60314808109284,170.3093674323654Q104.24676808109284,170.8286174323654,103.91857808109283,171.3661374323654Q103.59038808109284,171.9036574323654,103.29133808109283,172.45795743236542Q102.99227808109283,173.01215743236543,102.72320408109283,173.58155743236543Q102.45413008109283,174.15095743236543,102.21580508109284,174.73395743236543Q101.97748008109284,175.31695743236543,101.77058233989284,175.91175743236542Q101.87437708109283,176.06965743236543,101.98727008109283,176.2230574323654Q102.10016308109283,176.3763574323654,102.22195708109284,176.52485743236542Q102.34375208109283,176.6733574323654,102.47423308109283,176.81675743236542Q102.60471508109283,176.96005743236543,102.74365508109284,177.0980574323654Q102.88259808109284,177.2360574323654,103.02974808109283,177.36835743236543Q103.17690808109283,177.50075743236542,103.33201808109284,177.6272574323654Q103.48713808109284,177.75375743236543,103.64993808109284,177.87425743236543Q103.81273808109283,177.99465743236541,103.98293808109284,178.10875743236542Q104.15313808109283,178.22295743236543,104.33044808109284,178.33065743236543Q104.50774808109283,178.43825743236542,104.69184808109283,178.53925743236542Q104.87594808109283,178.64025743236542,105.06650808109283,178.73445743236542Q105.25707808109283,178.82855743236541,105.45377808109284,178.9157574323654Q105.65048808109283,179.00285743236543,105.85297808109283,179.08285743236542Q106.05547808109283,179.16275743236542,106.26340808109283,179.23545743236542Q106.47134808109283,179.30805743236542,106.68434808109284,179.37335743236542Q106.89735808109283,179.43855743236543,107.11505808109284,179.4962574323654Q107.33276808109284,179.55395743236542,107.55479808109284,179.6039574323654Q107.77681808109284,179.65395743236542,108.00276808109284,179.69625743236543Q108.22872808109284,179.7385574323654,108.45821808109284,179.77305743236542Q108.68770808109284,179.80755743236543,108.92032808109283,179.83415743236543Q109.15294808109283,179.8607574323654,109.38829808109284,179.87945743236543Q109.62363808109284,179.89815743236542,109.86129808109284,179.9088574323654Q110.09895808109283,179.91965743236543,110.33851808109283,179.9223574323654Q110.57806808109284,179.9251574323654,110.81909808109283,179.9199574323654Q111.06013808109283,179.9147574323654,111.30221808109283,179.90155743236542Q111.54430808109284,179.8884574323654,111.78701808109284,179.86735743236542Q112.02971808109284,179.8462574323654,112.27271808109283,179.8172574323654Q112.51561808109284,179.7881574323654,112.75831808109284,179.7513574323654Q113.00101808109284,179.7144574323654,113.24301808109283,179.6698574323654Q113.48511808109284,179.62515743236543,113.72611808109284,179.57275743236542Q113.96711808109283,179.52045743236542,114.20661808109284,179.46045743236542Q114.44611808109283,179.4004574323654,114.68371808109283,179.33295743236542Q114.96241808109284,179.25375743236543,115.23781808109284,179.16445743236542Q115.51321808109283,179.0750574323654,115.78471808109283,178.97585743236542Q116.05621808109284,178.87655743236542,116.32321808109283,178.7675574323654Q116.59011808109284,178.65855743236543,116.85191808109283,178.54015743236542Q117.11361808109284,178.4216574323654,117.36951808109283,178.2940574323654Q117.62541808109283,178.1665574323654,117.87491808109283,178.03005743236542Q118.12431808109284,177.89365743236542,118.36671808109284,177.7486574323654Q118.60911808109283,177.60375743236543,118.84381808109283,177.45055743236543Q119.07861808109283,177.2974574323654,119.30511808109284,177.1365574323654Q119.53161808109283,176.9755574323654,119.74941808109284,176.80725743236542Q119.96721808109284,176.63885743236543,120.17571808109284,176.46345743236543Q120.38421808109284,176.2881574323654,120.58291808109283,176.10615743236542Q120.78161808109283,175.9242574323654,120.97011808109283,175.73615743236542Q121.15861808109284,175.54805743236543,121.33631808109283,175.35425743236542Q121.51411808109283,175.1604574323654,121.68071808109283,174.96145743236542Q121.84731808109284,174.7623574323654,122.00241808109283,174.5585574323654Q122.15741808109283,174.3548574323654,122.30061808109284,174.1467574323654Q122.44371808109284,173.9387574323654,122.57461808109284,173.72695743236542Q122.70551808109283,173.5151574323654,122.82381808109284,173.3001574323654Q122.94211808109284,173.08505743236543,123.04761808109284,172.86725743236542Q123.15301808109284,172.6495574323654,123.24541808109284,172.4295574323654Q123.33771808109283,172.20955743236541,123.41671808109284,171.98795743236542Q123.49571808109283,171.76626743236542,123.56121808109283,171.54346743236542Q123.62661808109283,171.32067743236541,123.67841808109284,171.09727743236542Q123.73021808109283,170.87387743236542,123.76821808109284,170.65041743236543Q123.80621808109284,170.4269474323654,123.83021808109284,170.20395743236543Q123.85431808109283,169.98096743236542,123.86441808109284,169.7589774323654Q123.87451808109283,169.5369974323654,123.87061808109283,169.3165574323654Q123.86681808109283,169.09611743236542,123.84891808109283,168.87774743236542Q123.83111808109284,168.6593874323654,123.79931808109284,168.44362743236542Q123.76751808109283,168.22785743236543,123.72191808109284,168.0152174323654Q123.67621808109283,167.8025774323654,123.61691808109283,167.5935674323654Q123.44891808109284,167.0025174323654,123.17371808109283,166.4480674323654Q122.89851808109283,165.8936274323654,122.52131808109283,165.38642743236542Q122.14411808109284,164.8792274323654,121.67221808109284,164.4289974323654Q121.20021808109283,163.9787774323654,120.64251808109283,163.59415743236542Q120.09361808109284,163.21560743236543,119.47201808109284,162.90771743236542Q118.85041808109284,162.5998244323654,118.16751808109284,162.36831443236542Q117.48471808109284,162.1368034323654,116.75331808109283,161.98597743236542Q116.02201808109284,161.8351511323654,115.25571808109284,161.7678120438654ZM115.82541808109283,165.87692743236542Q112.45851808109283,167.4297174323654,109.87562808109283,170.1387874323654Q107.79571808109283,172.32025743236542,106.48897808109284,174.9738574323654Q107.19102808109284,175.37835743236542,108.13947808109283,175.6296574323654Q110.69713808109283,176.30725743236542,113.59051808109284,175.48525743236542Q117.01011808109283,174.51365743236542,118.81921808109283,172.13635743236543Q120.22451808109284,170.28953743236542,119.76911808109284,168.68674743236542Q119.47381808109283,167.64717743236542,118.37151808109283,166.88697743236543Q117.30871808109283,166.1539374323654,115.82541808109283,165.87692743236542Z" fill-rule="evenodd" fill="#EDE8FF" fill-opacity="1"/></g><g><ellipse cx="124.0633716583252" cy="183.66553688049316" rx="21.10283851623535" ry="21.10283851623535" fill-opacity="0" stroke-opacity="1" stroke="#EDE8FF" fill="none" stroke-width="5"/></g></g><g><path d="M298.0113306152344,111.75592385253907C297.86576261523436,112.22382385253906,298.08068761523435,112.72832385253906,298.51897461523436,112.94742385253906L303.66608061523436,115.52102385253906C306.98009061523436,117.17802385253907,310.0996806152344,119.19822385253906,312.96728061523436,121.54452385253907L314.1806806152344,122.53722385253906C317.1426806152344,124.96062385253907,319.8165806152344,127.71612385253906,322.14998061523437,130.74952385253906L324.29858061523436,133.54272385253907C326.5699806152344,136.49552385253907,328.50418061523436,139.69292385253908,330.0653806152344,143.07542385253907L332.6231806152344,148.61732385253907C332.8967806152344,149.21022385253906,333.6559806152344,149.38602385253907,334.1623806152344,148.97382385253906L370.29518061523436,119.56342385253906C370.9904806152344,118.99752385253906,370.64728061523437,117.87312385253907,369.75448061523434,117.79202385253906L353.2110806152344,116.28802385253906C352.66568061523435,116.23842385253906,352.26168061523435,115.75942385253907,352.3047806152344,115.21342385253907L354.81508061523436,83.41592385253907C354.87538061523435,82.65142385253907,354.08818061523436,82.10632385253906,353.3937806152344,82.43182385253907L326.68698061523435,94.95062385253907C326.2359806152344,95.16202385253906,325.6980806152344,95.00932385253907,325.42558061523437,94.59242385253907L311.6294806152344,73.49256385253906C311.1666806152344,72.78476385253906,310.08888061523436,72.93525385253906,309.8376806152344,73.74274385253906L304.11349061523435,92.14182385253906L298.0113306152344,111.75592385253907Z" fill="#EDE8FF" fill-opacity="1"/></g><g><ellipse cx="435.7446403503418" cy="170.66665267944336" rx="14.524822235107422" ry="14.524822235107422" fill="#EDE8FF" fill-opacity="1"/></g><g style="opacity:0.4000000059604645;"><ellipse cx="256" cy="256" rx="244" ry="244" fill-opacity="0" stroke-opacity="0.4000000059604645" stroke="#EDE8FF" fill="none" stroke-width="24"/></g><g><path d="M386.26803692626953,426.0865579101563Q384.5310369262695,427.41695791015627,382.76703692626955,428.7115579101563Q381.00303692626954,430.00625791015625,379.2130369262695,431.26455791015627Q377.42403692626954,432.52295791015626,375.6080369262695,433.74445791015626Q373.7930369262695,434.96595791015625,371.95303692626953,436.1501579101563Q370.11303692626956,437.33445791015623,368.25003692626956,438.4807579101562Q366.3860369262695,439.62715791015626,364.4990369262695,440.73525791015624Q362.61303692626956,441.84335791015627,360.7040369262695,442.91265791015627Q358.7950369262695,443.98195791015627,356.86503692626957,445.0120579101563Q354.9340369262695,446.0421579101562,352.9830369262695,447.0326579101563Q351.03203692626954,448.02315791015627,349.06103692626954,448.9735579101563Q347.09103692626957,449.9239579101562,345.10103692626956,450.83395791015624Q343.11103692626955,451.74395791015627,341.1030369262695,452.6130579101563Q339.09503692626953,453.4821579101563,337.0700369262695,454.31015791015625Q335.0450369262695,455.13805791015625,333.00303692626954,455.92445791015626Q330.96103692626957,456.71095791015625,328.90403692626955,457.45545791015627Q326.84603692626956,458.20005791015626,324.77403692626956,458.90235791015624Q322.70203692626956,459.60475791015625,320.61603692626954,460.26465791015625Q318.53003692626953,460.92455791015624,316.4300369262695,461.54175791015626Q314.3310369262695,462.15885791015626,312.22003692626953,462.7330579101563Q310.10903692626954,463.30725791015624,307.98603692626955,463.83815791015627Q305.8630369262695,464.36905791015624,303.7300369262695,464.85655791015625Q301.59703692626954,465.34395791015623,299.45503692626954,465.78775791015624Q297.31203692626957,466.23155791015625,295.1610369262695,466.63155791015623Q293.01003692626955,467.03145791015623,290.85103692626956,467.38745791015623Q288.69203692626957,467.74335791015625,286.52703692626955,468.0550579101563Q284.36103692626955,468.3668579101562,282.1890369262695,468.63435791015627Q280.01803692626953,468.9017579101562,277.84103692626957,469.12485791015627Q275.6650369262695,469.34795791015625,273.48403692626954,469.52645791015624Q271.30303692626956,469.70505791015626,269.11903692626953,469.83905791015627Q266.9350369262695,469.97295791015625,264.7490369262695,470.06235791015627Q262.56303692626955,470.15165791015625,260.37503692626956,470.1963579101563Q258.18803692626955,470.24105791015626,256.00003692626956,470.24105791015626Q253.38803692626954,470.24105791015626,250.77603692626954,470.1773579101563Q248.16503692626952,470.11365791015623,245.55603692626954,469.98635791015624Q242.94603692626953,469.8589579101563,240.34103692626954,469.6680579101562Q237.73603692626952,469.4771579101563,235.13603692626953,469.22275791015625Q232.53603692626953,468.9683579101562,229.94303692626954,468.65065791015627Q227.35003692626952,468.33295791015627,224.76603692626952,467.95205791015627Q222.18203692626952,467.57125791015625,219.60703692626953,467.12755791015627Q217.03303692626952,466.68375791015626,214.47003692626953,466.17745791015625Q211.90803692626952,465.67105791015626,209.35803692626953,465.10235791015623Q206.80903692626953,464.53365791015625,204.27353692626951,463.90295791015626Q201.73853692626955,463.27225791015627,199.21973692626955,462.57985791015625Q196.70093692626955,461.88755791015626,194.19963692626953,461.13405791015623Q191.69843692626955,460.3804579101562,189.21633692626955,459.5661579101562Q186.73423692626955,458.7518579101562,184.27273692626954,457.87725791015623Q181.81123692626954,457.0027579101562,179.37173692626953,456.06835791015624Q176.93233692626953,455.13405791015623,174.51643692626953,454.14055791015625Q172.10043692626954,453.14695791015623,169.70943692626952,452.09485791015624Q167.31843692626953,451.04265791015627,164.95383692626953,449.9325579101562Q162.58913692626953,448.82245791015623,160.25233692626952,447.65495791015627Q157.91543692626954,446.4875579101562,155.60773692626952,445.26345791015626Q153.30003692626954,444.03935791015624,151.02283692626952,442.75935791015627Q148.74563692626953,441.47935791015624,146.50043692626951,440.14415791015625Q144.25513692626953,438.80905791015624,142.04303692626954,437.41955791015624Q139.83093692626954,436.03005791015624,137.65343692626953,434.58705791015626Q135.47593692626953,433.1440579101562,133.33423692626954,431.6483579101563Q131.19253692626953,430.15275791015625,129.08793692626952,428.60525791015624Q126.98333692626953,427.05785791015626,124.91713692626954,425.45955791015626Q122.85083692626952,423.86125791015627,120.82423692626953,422.21295791015626Q118.79753692626953,420.56475791015623,116.81173692626953,418.86765791015625Q114.82584692626953,417.1705579101563,112.88196692626953,415.42545791015624Q110.93807692626953,413.68045791015624,109.03730692626954,411.88845791015626Q107.13654692626953,410.09655791015626,105.28004338209954,408.2588579101562C171.91683692626953,389.43141791015626,312.60103692626956,387.79552791015624,384.00003692626956,424.85095791015624Q385.1630369262695,425.45445791015624,386.26803692626953,426.0865579101563Z" fill-rule="evenodd" fill="#EDE8FF" fill-opacity="1"/></g><g><path d="M122.52117449707032,152.54315937500002C118.98149949707032,156.224959375,129.33003949707032,169.884159375,143.28170949707032,188.299159375C160.7565094970703,211.36425937500002,183.8838094970703,241.890359375,192.45380949707032,269.617359375Q207.8762094970703,319.513359375,187.9410094970703,380.288359375C187.94090949707032,380.288359375,187.94080949707032,380.289359375,187.94070949707032,380.289359375C187.92640949707032,380.333359375,187.95990949707033,380.379359375,188.0056094970703,380.376359375C223.62160949707032,378.402359375,262.8096094970703,379.520359375,298.98860949707034,384.717359375C299.7836094970703,384.831359375,300.3696094970703,383.994359375,300.0216094970703,383.269359375Q281.4186094970703,344.469359375,281.4186094970703,323.17735937500004Q281.4186094970703,289.640359375,411.7356094970703,232.574359375C411.9956094970703,232.461359375,412.1946094970703,232.243359375,412.27760949707033,231.972359375Q413.4906094970703,227.99535937500002,412.0736094970703,225.529359375Q407.8596094970703,218.192459375,380.36860949707034,224.227359375C343.1486094970703,232.397359375,319.5456094970703,255.092359375,287.77260949707033,255.092359375C271.8866094970703,255.092359375,270.8656094970703,248.510359375,275.0636094970703,246.014359375C278.1226094970703,244.195359375,283.9536094970703,244.545359375,289.3506094970703,244.868359375C291.3606094970703,244.989359375,293.31060949707035,245.106359375,295.0356094970703,245.106359375C307.7356094970703,245.106359375,339.47460949707033,232.414359375,345.8596094970703,219.71365937500002C345.86860949707034,219.696359375,345.8756094970703,219.679759375,345.8836094970703,219.66195937499998C345.8836094970703,219.661459375,345.8836094970703,219.661459375,345.8836094970703,219.660959375C346.7056094970703,217.73155937500002,347.6796094970703,214.249559375,345.8726094970703,216.056759375C343.7906094970703,218.138559375,337.0576094970703,217.966059375,334.1446094970703,217.891459375C333.59260949707027,217.877259375,333.16160949707034,217.429659375,333.1916094970703,216.878259375Q333.4156094970703,212.819959375,335.3626094970703,205.31375937500002C335.5596094970703,204.554459375,334.8086094970703,203.88635937499998,334.1066094970703,204.237259375L334.07060949707034,204.25525937499998C332.69060949707034,204.945259375,330.26260949707034,206.683859375,328.77760949707033,207.478659375C328.2476094970703,207.762559375,327.7836094970703,207.352659375,327.83960949707034,206.753859375Q328.4416094970703,200.318759375,327.02260949707033,191.863559375C326.95960949707035,191.485659375,327.4226094970703,191.25215937500002,327.6936094970703,191.523159375C327.7086094970703,191.538459375,327.7226094970703,191.554859375,327.7356094970703,191.572459375L331.7276094970703,197.162059375C331.89260949707034,197.392359375,332.2556094970703,197.275959375,332.2556094970703,196.992959375L332.2556094970703,191.562259375C332.2556094970703,191.55145937499998,332.2556094970703,191.541159375,332.2546094970703,191.53045937500002Q331.3466094970703,163.40175937499998,326.8086094970703,154.326259375C322.2696094970703,145.248259375,299.5746094970703,112.567399375,260.5386094970703,121.645399375Q221.92460949707032,130.625559375,214.40140949707032,167.143959375C214.3049094970703,167.612559375,213.90240949707032,167.945259375,213.42410949707033,167.931759375Q210.2197094970703,167.841659375,207.01530949707032,167.044559375C206.99050949707032,167.038459375,206.9668094970703,167.031559375,206.9426094970703,167.02335937499998C204.84870949707033,166.323359375,204.93340949707033,166.167959375,203.7761094970703,165.702059375C202.91210949707033,165.354159375,202.0886094970703,164.857359375,201.3957094970703,164.23485937499998Q199.7157094970703,162.725459375,197.04860949707032,160.722659375C197.0108094970703,160.694259375,196.97670949707032,160.662559375,196.93930949707033,160.633559375C196.6004094970703,160.37095937499998,196.0851094970703,160.607559375,196.0851094970703,161.056859375L196.0851094970703,163.985159375C196.0851094970703,164.203059375,196.0909094970703,164.420559375,196.1033094970703,164.638159375Q198.76610949707032,211.52425937499999,230.50160949707032,230.533359375C230.55460949707032,230.565359375,230.6036094970703,230.60035937499998,230.64960949707032,230.643359375C232.84260949707033,232.70235937500001,231.41760949707032,236.879359375,230.5816094970703,237.844359375C228.4136094970703,240.34635937500002,220.48570949707033,236.82635937499998,217.8724094970703,234.212359375C214.24290949707031,230.583359375,148.94450949707033,158.029759375,138.0021094970703,152.518759375C137.9911094970703,152.513259375,137.9807094970703,152.508259375,137.9694094970703,152.503159375Q128.0277194970703,147.989959375,122.58827349707032,152.481459375C122.5649644970703,152.500659375,122.54212449707032,152.521359375,122.52117449707032,152.54315937500002ZM161.7265094970703,432.616359375C161.50790949707033,432.509359375,161.28940949707032,432.401359375,161.07100949707032,432.293359375C160.8780094970703,432.198359375,160.64280949707032,432.273359375,160.54270949707032,432.464359375C160.1928094970703,433.129359375,160.67570949707033,433.929359375,161.42790949707032,433.929359375C162.1527094970703,433.929359375,162.3773094970703,432.935359375,161.7265094970703,432.616359375M253.9286094970703,200.333259375C252.88860949707032,207.380859375,251.0776094970703,228.91535937499998,256.9076094970703,230.581359375Q263.06560949707034,232.341359375,281.1586094970703,211.93535937500002C281.67560949707035,211.352559375,281.3406094970703,210.436059375,280.5736094970703,210.30015937500002C267.3556094970703,207.957659375,266.4436094970703,207.55575937499998,255.4286094970703,199.69705937499998C254.8386094970703,199.275559375,254.0346094970703,199.615359375,253.9286094970703,200.333259375Z" fill-rule="evenodd" fill="#EDE8FF" fill-opacity="1"/></g><g><path d="M176.11341857910156,98.95037603149413C176.11341857910156,130.65077603149416,205.93411857910155,132.53057603149415,239.42931857910156,132.53897603149414C239.58451857910157,132.53897603149414,239.73181857910157,132.50287603149414,239.87061857910157,132.43347603149414L247.67341857910156,128.53207603149414C248.55171857910156,128.09287603149414,248.35261857910155,126.77017603149415,247.38371857910158,126.61037603149414Q211.14321857910156,120.63427603149414,202.43961857910156,97.13477603149414Q195.18701857910156,77.55257603149414,235.07951857910155,54.49173703149414C235.10651857910156,54.47614303149414,235.13161857910157,54.45691903149414,235.15371857910156,54.43488803149414C235.40681857910155,54.18173403149414,235.17541857910157,53.75545603149414,234.82671857910157,53.83658803149414Q176.11341857910156,67.49747603149414,176.11341857910156,98.95037603149413Z" fill="#EDE8FF" fill-opacity="1"/></g><g><path d="M286.7181284423828,41.18427064992969Q290.3368284423828,41.70227787792969,293.94422844238284,42.343129877929684L302.8760284423828,45.816609877929686C303.4958284423828,46.057629877929685,303.7120284423828,46.82516987792969,303.3093284423828,47.35429987792969L258.4276284423828,106.31644987792968C258.0906284423828,106.75914987792969,257.45712844238284,106.84174987792969,257.0180284423828,106.50014987792969L242.29959144238282,95.05254987792969C241.85018904238282,94.70294987792968,241.7828664423828,94.04934987792969,242.15159344238282,93.61554987792968L286.7181284423828,41.18427064992969ZM360.5155284423828,203.6632498779297C360.4385284423828,203.4582498779297,360.43152844238284,203.2342498779297,360.49452844238283,203.0242498779297L393.5965284423828,92.98084987792969C393.7905284423828,92.33764987792969,394.5505284423828,92.06424987792968,395.10952844238284,92.43684987792969L404.31152844238284,98.57174987792969C404.6545284423828,98.8000498779297,404.8215284423828,99.21484987792968,404.7335284423828,99.61704987792969L383.1855284423828,198.3822498779297C383.1255284423828,198.6542498779297,382.9565284423828,198.8892498779297,382.7165284423828,199.0302498779297L364.1465284423828,210.00324987792968C363.6115284423828,210.31924987792968,362.9205284423828,210.07624987792968,362.7015284423828,209.49324987792968L360.5155284423828,203.6632498779297ZM312.2978284423828,356.9562498779297C312.28842844238284,356.8302498779297,312.3030284423828,356.70424987792967,312.3408284423828,356.5832498779297L331.2344284423828,296.3042498779297C331.3073284423828,296.0712498779297,331.4625284423828,295.87324987792965,331.67092844238283,295.7472498779297L363.8275284423828,276.2842498779297C364.5825284423828,275.8272498779297,365.5165284423828,276.5012498779297,365.3205284423828,277.3622498779297L338.0399284423828,397.04324987792967C337.8802284423828,397.7432498779297,337.0553284423828,398.0522498779297,336.4749284423828,397.6282498779297L314.4724284423828,381.5492498779297C314.2357284423828,381.3762498779297,314.0868284423828,381.10824987792967,314.06512844238284,380.81524987792966L312.2978284423828,356.9562498779297Z" fill-rule="evenodd" fill="#EDE8FF" fill-opacity="1"/></g><g style="opacity:0.4000000059604645;"><path d="M403.97176962890626,252.3688378515625C401.3772696289062,253.4066378515625,400.85896962890627,260.0799978515625,400.8910696289063,266.6243978515625Q403.10626962890626,265.7923978515625,405.38716962890624,265.1623978515625Q407.66806962890627,264.5324978515625,409.99626962890625,264.1096978515625Q412.32456962890626,263.6868978515625,414.68126962890625,263.4745978515625Q417.03806962890627,263.2622978515625,419.40436962890624,263.2622978515625Q420.28226962890625,263.2622978515625,421.1596696289063,263.2915978515625Q422.03706962890624,263.3208978515625,422.91306962890627,263.3793978515625Q423.7889696289062,263.4378978515625,424.66246962890625,263.5254978515625Q425.53596962890623,263.6131978515625,426.40606962890627,263.7298978515625Q427.27616962890625,263.8466978515625,428.14186962890625,263.9923978515625Q429.00756962890625,264.1380978515625,429.8679696289063,264.3124978515625Q430.72836962890625,264.4869978515625,431.58246962890627,264.6899978515625Q432.4365696289062,264.8930978515625,433.28336962890626,265.1244978515625Q434.13026962890626,265.3558978515625,434.96886962890625,265.6153978515625Q435.80756962890626,265.8748978515625,436.63706962890626,266.16229785156247Q437.46666962890623,266.4495978515625,438.28616962890624,266.7643978515625Q439.10566962890624,267.0791978515625,439.9141696289063,267.4211978515625Q440.72276962890624,267.7631978515625,441.5194696289062,268.1318978515625Q442.31616962890627,268.5005978515625,443.10016962890626,268.8956978515625Q443.8840696289062,269.2907978515625,444.65446962890627,269.7117978515625Q445.42486962890627,270.1327978515625,446.18066962890623,270.5792978515625Q446.9365696289062,271.0256978515625,447.6768696289063,271.4970978515625Q448.41786962890626,271.9684978515625,449.14186962890625,272.4643978515625Q449.8668696289062,272.9601978515625,450.57386962890627,273.4798978515625Q451.28186962890624,273.9995978515625,451.97186962890623,274.5425978515625Q452.66186962890623,275.0855978515625,453.3328696289062,275.6512978515625Q454.0038696289063,276.2169978515625,454.65586962890626,276.8047978515625Q455.30786962890625,277.3924978515625,455.9408696289063,278.0016978515625Q456.57286962890623,278.6108978515625,457.1838696289062,279.2407978515625Q457.79586962890625,279.8706978515625,458.3858696289062,280.5206978515625Q458.97586962890625,281.1705978515625,459.54386962890624,281.8398978515625Q460.1118696289062,282.5090978515625,460.65786962890627,283.1969978515625Q461.2028696289062,283.8847978515625,461.72586962890625,284.5903978515625Q462.24786962890624,285.2960978515625,462.74586962890623,286.0186978515625Q463.24486962890626,286.7413978515625,463.71886962890625,287.4801978515625Q464.19286962890624,288.2190978515625,464.64186962890625,288.9733978515625Q465.09086962890626,289.7275978515625,465.51486962890624,290.4964978515625L467.5178696289063,290.4964978515625C468.42586962890624,290.4964978515625,469.33386962890626,272.3403978515625,467.5178696289063,270.5247978515625Q465.78686962890623,268.7942978515625,451.68686962890627,270.3625978515625C450.99986962890625,270.4388978515625,450.4338696289062,269.7999978515625,450.57886962890626,269.1248978515625Q454.58186962890625,250.4885578515625,448.45386962890626,248.7376298515625C442.09936962890623,246.9220178515625,408.51076962890625,250.5532278515625,403.97176962890626,252.3688378515625ZM347.68804262890626,393.07779785156254C344.67110962890627,388.85479785156247,354.8890896289063,349.3377978515625,366.87936962890626,319.5782978515625Q366.96816962890625,320.8514978515625,367.11856962890624,322.1188978515625Q367.26896962890623,323.3863978515625,367.48056962890627,324.64509785156247Q367.69216962890624,325.90369785156247,367.96456962890625,327.1506978515625Q368.2368696289062,328.3975978515625,368.56936962890626,329.62989785156253Q368.90176962890627,330.8621978515625,369.29356962890625,332.07689785156253Q369.68536962890624,333.2915978515625,370.13556962890624,334.4858978515625Q370.58566962890626,335.6801978515625,371.09316962890625,336.8512978515625Q371.60066962890625,338.0223978515625,372.16436962890623,339.16749785156253Q372.72806962890627,340.3126978515625,373.3464696289062,341.4290978515625Q373.96496962890626,342.5455978515625,374.63686962890625,343.63079785156253Q375.3086696289063,344.7159978515625,376.0323696289062,345.7673978515625Q376.75596962890626,346.8186978515625,377.5296696289063,347.8337978515625Q378.30346962890627,348.8487978515625,379.1254696289063,349.8247978515625Q379.9474696289062,350.80179785156247,380.81576962890625,351.7367978515625Q381.68416962890626,352.6727978515625,382.59676962890626,353.5647978515625Q383.50946962890623,354.4567978515625,384.46426962890627,355.30379785156254C377.00166962890626,361.5777978515625,361.26896962890623,390.4087978515625,359.48946962890625,393.07779785156254C357.67376962890626,395.80179785156247,352.2270096289063,399.4327978515625,347.68804262890626,393.07779785156254ZM395.80146962890626,404.8797978515625Q390.87016962890624,402.4137978515625,392.63576962890625,361.2547978515625Q394.14766962890627,362.1477978515625,395.7155696289062,362.9377978515625Q397.28356962890626,363.7277978515625,398.90066962890626,364.4117978515625Q400.51776962890625,365.0947978515625,402.1768696289063,365.6697978515625Q403.83596962890624,366.2437978515625,405.52956962890624,366.7067978515625Q407.2232696289062,367.1687978515625,408.94396962890625,367.5177978515625Q410.66466962890627,367.8667978515625,412.40476962890625,368.09979785156247Q414.14496962890627,368.3337978515625,415.89676962890627,368.45079785156247Q417.6485696289062,368.5677978515625,419.40426962890626,368.5677978515625Q422.0647696289062,368.5677978515625,424.71166962890624,368.2997978515625Q427.35856962890625,368.0307978515625,429.96506962890624,367.4977978515625Q432.57146962890624,366.9637978515625,435.11076962890627,366.1697978515625Q437.65016962890627,365.3767978515625,440.09656962890625,364.33079785156247Q439.7438696289063,365.0747978515625,439.37596962890626,365.8437978515625C429.3901696289063,386.7237978515625,401.24826962890626,407.6027978515625,395.80146962890626,404.8797978515625Z" fill-rule="evenodd" fill="#EDE8FF" fill-opacity="1"/></g><g><path d="M50.49252862060547,325.6875849609375Q49.62182562060547,323.1205849609375,48.816375606005465,320.5355849609375L140.73709862060548,212.5514209609375C141.17389862060548,212.0382969609375,141.98289862060545,212.0952779609375,142.34339862060546,212.6645649609375L158.49239862060546,238.1634849609375C158.71639862060547,238.5169849609375,158.69639862060546,238.9725849609375,158.44239862060547,239.3052849609375L69.01649862060546,356.4535849609375C68.57799862060547,357.0275849609375,67.69369862060547,356.9615849609375,67.34539862060547,356.3285849609375L50.49252862060547,325.6875849609375Z" fill-rule="evenodd" fill="#EDE8FF" fill-opacity="1"/></g><g style="opacity:0.4000000059604645;"><path d="M186.60909356689453,334.7849873046875C185.64609356689454,323.4749873046875,182.89709356689454,312.0029873046875,177.92909356689452,307.74498730468747Q175.03209356689453,305.2619873046875,172.89009356689454,305.7969873046875Q170.34309356689454,306.4339873046875,168.86309356689452,311.3379873046875C168.85509356689454,311.3629873046875,168.84809356689453,311.3879873046875,168.84309356689454,311.4149873046875Q166.11909356689455,324.0849873046875,160.68109356689453,324.0849873046875Q155.27309356689454,324.0849873046875,152.55009356689453,321.3999873046875C152.52309356689454,321.37498730468747,152.49909356689454,321.3469873046875,152.47609356689452,321.3179873046875Q137.96959356689453,303.2059873046875,124.36889356689453,303.2059873046875C121.05629356689452,303.2059873046875,118.06599356689453,303.9579873046875,115.46339356689452,305.2139873046875L104.28139356689454,319.8329873046875C104.07109356689453,321.3209873046875,104.10339356689454,322.7619873046875,104.39729356689453,324.0849873046875C105.00479356689453,326.81898730468754,106.83169356689453,326.70698730468746,110.15019356689453,326.5039873046875C116.71859356689453,326.10098730468746,129.13039356689453,325.3409873046875,149.49509356689452,345.5809873046875C149.6830935668945,345.7679873046875,149.78709356689453,346.01598730468754,149.78909356689454,346.2819873046875C149.80009356689453,347.8819873046875,149.87109356689453,349.7909873046875,149.94609356689455,351.83198730468746C150.26509356689454,360.40398730468746,150.67009356689454,371.2909873046875,147.06409356689454,371.2909873046875C142.52489356689455,371.2909873046875,119.83019356689454,350.4109873046875,106.21299356689454,348.59598730468747C92.59579356689453,346.7799873046875,82.60989356689453,349.5029873046875,77.16319356689453,358.58198730468746C71.71649356689453,367.6599873046875,78.97879356689452,382.1839873046875,94.41149356689453,391.2619873046875Q96.89469356689453,392.72298730468754,100.83519356689453,393.50198730468753C120.69999356689453,387.8179873046875,146.95009356689454,383.5799873046875,175.90809356689454,381.3759873046875L176.39909356689452,380.4429873046875C176.42509356689453,380.3929873046875,176.44709356689452,380.3409873046875,176.46409356689452,380.2889873046875Q184.19509356689454,356.7189873046875,186.60909356689453,334.7849873046875ZM54.29543356689453,196.3786373046875Q54.47799356689453,197.0845573046875,54.695493566894534,197.7805273046875Q54.91299356689453,198.4764973046875,55.164893566894534,199.1608373046875Q55.41689356689453,199.8451873046875,55.70269356689453,200.5162873046875Q55.98849356689453,201.1872873046875,56.30749356689453,201.8434873046875Q56.62649356689453,202.4996873046875,56.97779356689453,203.1393873046875Q57.32919356689453,203.7790873046875,57.71209356689453,204.4006873046875Q58.09499356689453,205.0223873046875,58.50859356689453,205.6245873046875Q58.92209356689453,206.2267873046875,59.36529356689453,206.80798730468752Q59.80839356689453,207.3891873046875,60.28019356689453,207.9479873046875Q60.75189356689453,208.5067873046875,61.250993566894536,209.0419873046875Q61.75019356689453,209.5770873046875,62.27549356689453,210.0871873046875Q62.80089356689453,210.59738730468752,63.35119356689453,211.0812873046875Q63.90149356689453,211.5651873046875,64.47549356689453,212.0216873046875Q65.04939356689454,212.4781873046875,65.64559356689453,212.9061873046875Q66.24179356689453,213.3341873046875,66.85879356689453,213.7326873046875Q67.47589356689453,214.1311873046875,68.11219356689453,214.4991873046875Q68.74849356689452,214.8671873046875,69.40259356689452,215.2037873046875Q70.05679356689453,215.5403873046875,70.72709356689452,215.8448873046875Q71.39739356689454,216.1492873046875,72.08239356689452,216.4208873046875Q72.76729356689452,216.6923873046875,73.46519356689453,216.9302873046875Q74.16309356689453,217.1682873046875,74.87219356689454,217.3720873046875Q75.58139356689453,217.5758873046875,76.30009356689453,217.7450873046875Q77.01879356689453,217.9142873046875,77.74539356689453,218.0483873046875Q78.47189356689452,218.1825873046875,79.20449356689454,218.28138730468748Q79.93719356689454,218.3800873046875,80.67409356689453,218.4432873046875Q81.41099356689453,218.5064873046875,82.15049356689454,218.5338873046875Q82.88999356689453,218.5612873046875,83.63019356689453,218.5528873046875Q84.37049356689454,218.5444873046875,85.10969356689452,218.5002873046875Q85.84889356689453,218.45608730468751,86.58529356689453,218.3761873046875Q87.32169356689454,218.2962873046875,88.05349356689453,218.1808873046875Q88.78529356689452,218.0654873046875,89.51079356689453,217.9147873046875Q90.23619356689453,217.7641873046875,90.95359356689454,217.5786873046875Q91.68319356689453,217.3900873046875,92.40259356689452,217.1657873046875Q93.12199356689453,216.9415873046875,93.82939356689454,216.6823873046875Q94.53679356689453,216.4230873046875,95.23049356689452,216.1293873046875Q95.92429356689453,215.8357873046875,96.60249356689454,215.5084873046875Q97.28079356689453,215.1811873046875,97.94189356689452,214.8210873046875Q98.60299356689453,214.4608873046875,99.24529356689453,214.0688873046875Q99.88759356689454,213.6767873046875,100.50949356689453,213.2536873046875Q101.13139356689453,212.8306873046875,101.73139356689452,212.3777873046875Q102.33139356689453,211.9247873046875,102.90789356689453,211.4430873046875Q103.48449356689453,210.9613873046875,104.03609356689452,210.4519873046875Q104.58779356689453,209.9426873046875,105.11319356689452,209.4070873046875Q105.63859356689453,208.8714873046875,106.13649356689453,208.3108873046875Q106.63429356689454,207.7502873046875,107.10339356689454,207.1660873046875Q107.57249356689454,206.58198730468752,108.01159356689453,205.9756873046875Q108.45069356689453,205.3692873046875,108.85869356689453,204.7423873046875Q109.26669356689453,204.1154873046875,109.64269356689454,203.4695873046875Q109.90839356689453,203.0129873046875,110.15769356689454,202.54768730468749C115.40099356689453,203.4057873046875,124.56609356689454,209.2794873046875,129.47509356689454,216.6322873046875L108.29829356689453,241.4608873046875C103.52239356689452,241.2404873046875,103.26309356689453,238.4850873046875,102.94769356689453,235.1330873046875C102.44589356689454,229.80108730468748,101.80209356689454,222.9595873046875,82.61009356689453,222.4112873046875C58.54659356689453,221.7237873046875,50.624823566894534,236.13668730468748,47.40854356689453,241.9884873046875C46.37810356689453,243.8632873046875,45.83066356689453,244.85928730468748,45.39011156689453,244.1984873046875C43.63234156689453,241.5618873046875,43.57635056689453,200.6369873046875,50.98814356689453,189.7934233046875C51.34604356689453,189.2698033046875,52.092363566894534,189.2977373046875,52.47931356689453,189.8002713046875C52.79350356689453,190.2083033046875,53.110003566894534,190.6066273046875,53.428703566894534,190.9954373046875Q53.61015356689453,193.7283573046875,54.29543356689453,196.3786373046875ZM75.77109356689454,279.5972873046875L97.68809356689454,253.9007873046875Q97.60309356689453,253.4351873046875,97.49789356689453,252.9736873046875Q97.39269356689454,252.5121873046875,97.26759356689453,252.0556873046875Q97.14249356689453,251.5992873046875,96.99759356689452,251.14868730468748Q96.85279356689453,250.6980873046875,96.68849356689452,250.2541873046875Q96.52429356689453,249.8102873046875,96.34089356689452,249.3738873046875Q96.15749356689453,248.9375873046875,95.95529356689454,248.5095873046875Q95.75319356689454,248.0816873046875,95.53259356689453,247.6628873046875Q95.31199356689453,247.2440873046875,95.07349356689454,246.83528730468748Q94.83499356689452,246.4264873046875,94.57889356689452,246.0283873046875Q94.32289356689452,245.6302873046875,94.04969356689453,245.2437873046875Q93.77659356689453,244.8571873046875,93.48699356689454,244.4828873046875Q93.19729356689453,244.10848730468751,92.89169356689453,243.7470873046875Q92.58609356689453,243.3856873046875,92.26509356689454,243.0378873046875Q91.94399356689453,242.6900873046875,91.60819356689453,242.3565873046875Q91.27239356689452,242.0229873046875,90.92239356689453,241.7043873046875Q90.57229356689453,241.38578730468748,90.20879356689453,241.0826873046875Q89.84529356689453,240.7794873046875,89.46899356689454,240.4924873046875Q89.09269356689452,240.2053873046875,88.70419356689453,239.9349873046875Q88.31579356689454,239.6644873046875,87.91599356689453,239.4111873046875Q87.51619356689453,239.1578873046875,87.10569356689453,238.9221873046875Q86.69529356689453,238.6864873046875,86.27499356689452,238.4687873046875Q85.85469356689453,238.2510873046875,85.42529356689454,238.0518873046875Q84.99599356689453,237.8526873046875,84.55839356689452,237.6722873046875Q84.12079356689453,237.49198730468748,83.67579356689453,237.3307873046875Q83.23069356689453,237.1695873046875,82.77919356689453,237.0277873046875Q82.32759356689454,236.8860873046875,81.87019356689453,236.7640873046875Q81.41289356689452,236.6421873046875,80.95069356689453,236.5401873046875Q80.48849356689453,236.43808730468749,80.02229356689453,236.3562873046875Q79.55619356689454,236.2744873046875,79.08689356689453,236.2129873046875Q78.61759356689453,236.1514873046875,78.14599356689453,236.1103873046875Q77.67449356689454,236.0692873046875,77.20159356689453,236.0487873046875Q76.72879356689452,236.0281873046875,76.25549356689453,236.0281873046875Q75.72059356689454,236.0281873046875,75.18639356689454,236.05448730468748Q74.65219356689454,236.0806873046875,74.11989356689453,236.1330873046875Q73.58769356689453,236.1854873046875,73.05859356689453,236.2639873046875Q72.52949356689453,236.3424873046875,72.00499356689453,236.4467873046875Q71.48039356689453,236.55118730468752,70.96159356689454,236.6810873046875Q70.44279356689452,236.8110873046875,69.93089356689453,236.9663873046875Q69.41909356689453,237.1215873046875,68.91559356689453,237.3017873046875Q68.41199356689452,237.4819873046875,67.91779356689453,237.6866873046875Q67.42369356689453,237.8912873046875,66.94019356689454,238.1199873046875Q66.45669356689453,238.3486873046875,65.98499356689453,238.60078730468751Q65.51329356689453,238.8528873046875,65.05459356689454,239.1278873046875Q64.59579356689453,239.4028873046875,64.15109356689453,239.6999873046875Q63.70639356689453,239.9971873046875,63.27679356689453,240.3157873046875Q62.84719356689453,240.6343873046875,62.433793566894536,240.9736873046875Q62.02029356689453,241.3129873046875,61.62399356689453,241.6721873046875Q61.22769356689453,242.0312873046875,60.84949356689453,242.4094873046875Q60.471393566894534,242.7876873046875,60.11219356689453,243.1839873046875Q59.75299356689453,243.5802873046875,59.41369356689453,243.9937873046875Q59.07439356689453,244.4071873046875,58.75579356689453,244.8367873046875Q58.437193566894535,245.2663873046875,58.13999356689453,245.7110873046875Q57.84289356689453,246.1557873046875,57.56789356689453,246.6145873046875Q57.292893566894534,247.07328730468748,57.040793566894536,247.5449873046875Q56.78869356689453,248.0166873046875,56.55999356689453,248.5001873046875Q56.33129356689453,248.9836873046875,56.12669356689453,249.4777873046875Q55.92199356689453,249.9719873046875,55.74179356689453,250.4754873046875Q55.56159356689453,250.9790873046875,55.40639356689453,251.4908873046875Q55.25109356689453,252.0027873046875,55.12119356689453,252.5215873046875Q54.99119356689453,253.0403873046875,54.88689356689453,253.56498730468752Q54.78249356689453,254.0894873046875,54.70399356689453,254.61858730468748Q54.62559356689453,255.1475873046875,54.57309356689453,255.6798873046875Q54.52069356689453,256.2121873046875,54.49449356689453,256.7463873046875Q54.46819356689453,257.2805873046875,54.46819356689453,257.81538730468753Q54.46819356689453,258.3426873046875,54.493693566894535,258.8693873046875Q54.51919356689453,259.3959873046875,54.57019356689453,259.9207873046875Q54.62109356689453,260.4455873046875,54.69739356689453,260.9673873046875Q54.77369356689453,261.4890873046875,54.875093566894535,262.0064873046875Q54.97649356689453,262.5238873046875,55.10289356689453,263.0358873046875Q55.22919356689453,263.5477873046875,55.38019356689453,264.0529873046875Q55.53109356689453,264.5581873046875,55.70639356689453,265.0554873046875Q55.88159356689453,265.5527873046875,56.080593566894535,266.0409873046875Q56.27969356689453,266.5292873046875,56.50219356689453,267.0072873046875Q56.724593566894534,267.4853873046875,56.969893566894534,267.9520873046875Q57.21519356689453,268.4188873046875,57.48289356689453,268.8731873046875Q57.750493566894534,269.3274873046875,58.03969356689453,269.76828730468753Q58.32899356689453,270.2091873046875,58.63929356689453,270.6354873046875Q58.94949356689453,271.0617873046875,59.27999356689453,271.4725873046875Q59.61059356689453,271.8834873046875,59.96059356689453,272.2777873046875Q60.31059356689453,272.6721873046875,60.67919356689453,273.04908730468753Q61.04789356689453,273.4260873046875,61.43439356689453,273.7847873046875Q61.82089356689453,274.1434873046875,62.22419356689453,274.4829873046875Q62.62759356689453,274.8225873046875,63.04689356689453,275.1422873046875Q63.46619356689453,275.4618873046875,63.90049356689453,275.7608873046875Q64.33479356689453,276.0598873046875,64.78309356689454,276.33758730468753Q65.23139356689452,276.6151873046875,65.69249356689453,276.8707873046875Q66.15369356689453,277.1264873046875,66.62669356689453,277.3594873046875Q67.09959356689453,277.5924873046875,67.58329356689453,277.8023873046875Q68.06709356689453,278.0122873046875,68.56029356689453,278.1984873046875Q69.05359356689453,278.38468730468753,69.55539356689454,278.5468873046875Q70.05709356689454,278.7089873046875,70.56609356689452,278.8466873046875Q71.07499356689453,278.9843873046875,71.59009356689452,279.0972873046875Q72.10509356689454,279.2101873046875,72.62499356689453,279.2980873046875Q73.14489356689452,279.3858873046875,73.66849356689454,279.4485873046875Q74.19199356689452,279.5111873046875,74.71799356689453,279.5483873046875Q75.24389356689453,279.58558730468746,75.77109356689454,279.5972873046875ZM149.78709356689453,301.3899873046875C144.34049356689454,297.7589873046875,126.18439356689453,296.85098730468746,126.18439356689453,294.1279873046875C126.18439356689453,291.5469873046875,145.74409356689455,265.3321873046875,158.60809356689452,251.7759873046875C159.26609356689454,251.08288730468752,160.42509356689453,251.60848730468751,160.30609356689453,252.5564873046875Q156.47209356689453,283.07288730468747,160.39609356689454,284.1055873046875Q160.5340935668945,284.1417873046875,160.68109356689453,284.1417873046875C165.22009356689455,284.1417873046875,172.48209356689452,289.5889873046875,168.85109356689452,294.1279873046875C165.22009356689455,298.6669873046875,161.58909356689452,307.74498730468747,158.86509356689453,307.74498730468747C156.14209356689452,307.74498730468747,155.23409356689453,305.0209873046875,149.78709356689453,301.3899873046875Z" fill-rule="evenodd" fill="#EDE8FF" fill-opacity="1"/></g></g></g></svg>